<svg width="26" height="33" fill="none" xmlns="http://www.w3.org/2000/svg"><path d="M18.79 8.31a6.55 6.55 0 00-2.228.37 30.83 30.83 0 00-1.88.74c-.565.246-1.055.369-1.469.37-.664 0-1.423-.234-2.278-.701-.856-.468-1.806-.702-2.85-.702-1.312 0-2.573.37-3.785 1.11-1.212.739-2.204 1.822-2.975 3.249C.555 14.173.168 15.93.167 18.02c0 1.937.315 3.874.946 5.813.631 1.937 1.412 3.569 2.341 4.893a33.297 33.297 0 002.302 2.918c.739.825 1.606 1.237 2.602 1.237.664 0 1.237-.115 1.718-.344a32.5 32.5 0 011.518-.675c.531-.221 1.195-.332 1.992-.332.83 0 1.493.106 1.992.318.498.213.975.429 1.43.65.456.22 1.05.33 1.78.33 1.062 0 1.98-.42 2.752-1.26.772-.84 1.49-1.762 2.154-2.765.747-1.121 1.29-2.15 1.63-3.085.34-.935.51-1.436.51-1.504-.017 0-.237-.119-.66-.357-.423-.238-.908-.612-1.456-1.122-.548-.51-1.03-1.181-1.444-2.013-.414-.832-.622-1.852-.623-3.059 0-1.377.27-2.511.81-3.403.54-.891 1.087-1.559 1.642-2.001.556-.443.859-.698.909-.765-.714-1.037-1.499-1.776-2.354-2.217-.855-.442-1.64-.714-2.353-.816-.714-.102-1.22-.153-1.519-.153l.004.002zm-1.146-2.676a6.869 6.869 0 001.22-2.077c.3-.79.45-1.6.448-2.434 0-.305-.008-.526-.025-.662-.814.017-1.656.264-2.527.739-.871.475-1.59 1.053-2.154 1.734-.449.526-.847 1.176-1.195 1.95a5.859 5.859 0 00-.523 2.433c0 .272.025.467.075.586.033 0 .09.004.174.013.082.008.174.013.274.013.696 0 1.447-.217 2.253-.65.805-.432 1.464-.98 1.978-1.644l.002-.001z" fill="#202223"/></svg>