<svg width="23" height="23" fill="none" xmlns="http://www.w3.org/2000/svg"><path clip-rule="evenodd" d="M18.757 18.923c-3.21 3.21-7.96 3.903-11.85 2.105-.573-.231-1.044-.418-1.491-.418-1.247.007-2.798 1.216-3.604.41s.403-2.358.403-3.612c0-.448-.18-.91-.41-1.485C.005 12.035.7 7.282 3.909 4.073c4.096-4.097 10.751-4.097 14.848 0 4.104 4.104 4.096 10.753 0 14.85z" stroke="#202223" stroke-width="1.2" stroke-linecap="round" stroke-linejoin="round"/><path fill-rule="evenodd" clip-rule="evenodd" d="M6.289 10.287a1 1 0 100 2h.009a1 1 0 100-2h-.01zm3.98 1a1 1 0 011-1h.009a1 1 0 110 2h-.01a1 1 0 01-1-1zm4.977 0a1 1 0 011-1h.01a1 1 0 110 2h-.01a1 1 0 01-1-1z" fill="#202223"/></svg>