<svg width="18" height="18" fill="none" xmlns="http://www.w3.org/2000/svg"><g clip-path="url(#clip0_1435_42008)" stroke="#202223" stroke-width="1.2"><path d="M15.75 11.4H14.1V2.1h1.65a1.65 1.65 0 011.65 1.65v6a1.65 1.65 0 01-1.65 1.65zm-7.65.697l.116-.698H2.072a1.464 1.464 0 01-1.44-1.726L1.5 4.891a3.4 3.4 0 013.345-2.792h6.562v9.758l-1.729 3.454a1.085 1.085 0 01-1.392.502 1.102 1.102 0 01-.606-1.204l.001-.008.001-.008.417-2.496z"/></g><defs><clipPath id="clip0_1435_42008"><path fill="#fff" transform="rotate(-180 9 9)" d="M0 0h18v18H0z"/></clipPath></defs></svg>