<svg width="28" height="28" fill="none" xmlns="http://www.w3.org/2000/svg"><path d="M13.124 7.422l.873 1.56.873-1.56a5.683 5.683 0 012.06-2.111 5.772 5.772 0 012.828-.807 6.171 6.171 0 014.222 1.952 6.026 6.026 0 011.618 4.337v.038c0 1.5-.618 3.142-1.656 4.822-1.032 1.67-2.429 3.298-3.867 4.746a49.382 49.382 0 01-6.045 5.133s0 0 0 0l-.033.024-.031-.022h-.002a49.576 49.576 0 01-6.045-5.136c-1.439-1.448-2.836-3.075-3.867-4.745-1.039-1.68-1.656-3.323-1.656-4.822v-.018l-.001-.02a6.026 6.026 0 011.618-4.337 6.171 6.171 0 014.222-1.952c.998.02 1.974.299 2.829.807a5.683 5.683 0 012.06 2.11z" stroke="#161517" stroke-width="2"/></svg>