<svg width="28" height="28" fill="none" xmlns="http://www.w3.org/2000/svg"><path clip-rule="evenodd" d="M21.757 20.923c-3.209 3.21-7.96 3.903-11.85 2.105-.573-.231-1.044-.418-1.491-.418-1.247.007-2.798 1.216-3.604.41s.403-2.358.403-3.612c0-.448-.18-.91-.41-1.485-1.8-3.888-1.105-8.641 2.104-11.85 4.096-4.097 10.752-4.097 14.848 0 4.104 4.104 4.096 10.753 0 14.85z"/><path clip-rule="evenodd" d="M9.289 12.287a1 1 0 100 2h.01a1 1 0 000-2h-.01zm3.98 1a1 1 0 011-1h.009a1 1 0 110 2h-.01a1 1 0 01-1-1zm4.978 0a1 1 0 011-1h.009a1 1 0 110 2h-.01a1 1 0 01-1-1z"/></svg>