<svg width="28" height="28" fill="none" xmlns="http://www.w3.org/2000/svg"><path fill-rule="evenodd" clip-rule="evenodd" d="M27.703 14.318c0-.992-.09-1.947-.255-2.863H14.263v5.415h7.534a6.44 6.44 0 01-2.793 4.226v3.512h4.524c2.647-2.437 4.175-6.026 4.175-10.29z" fill="#4285F4"/><path fill-rule="evenodd" clip-rule="evenodd" d="M14.262 28c3.78 0 6.949-1.253 9.265-3.392l-4.524-3.512c-1.254.84-2.857 1.336-4.741 1.336-3.646 0-6.733-2.463-7.834-5.772H1.751v3.627C4.055 24.863 8.789 28 14.261 28z" fill="#34A853"/><path fill-rule="evenodd" clip-rule="evenodd" d="M6.43 16.66A8.416 8.416 0 015.99 14c0-.923.16-1.82.44-2.66V7.713H1.751A13.995 13.995 0 00.262 14c0 2.26.542 4.398 1.49 6.288l4.677-3.628z" fill="#FBBC05"/><path fill-rule="evenodd" clip-rule="evenodd" d="M14.262 5.568c2.055 0 3.9.707 5.352 2.094l4.015-4.016C21.205 1.387 18.036 0 14.262 0 8.789 0 4.055 3.137 1.75 7.713l4.677 3.627c1.101-3.31 4.188-5.772 7.834-5.772z" fill="#EA4335"/></svg>