<svg width="20" height="20" xmlns="http://www.w3.org/2000/svg"><path d="M9.563 4.478l.64.856.64-.855.002-.003.008-.01.031-.04a14.024 14.024 0 01.546-.664c.364-.414.746-.791 1.007-.946a4.303 4.303 0 012.108-.602 4.604 4.604 0 013.148 1.456A4.495 4.495 0 0118.9 6.906v.03c0 1.118-.461 2.347-1.242 3.61-.775 1.254-1.825 2.478-2.907 3.568a37.187 37.187 0 01-4.548 3.862 37.328 37.328 0 01-4.547-3.863c-1.083-1.09-2.133-2.313-2.908-3.568-.78-1.262-1.241-2.491-1.241-3.609v-.03A4.495 4.495 0 012.712 3.67a4.604 4.604 0 013.149-1.456c.743.016 1.47.223 2.107.602.261.155.644.532 1.007.945a13.973 13.973 0 01.546.664l.032.041.007.01.002.002z"/></svg>