<svg width="70" height="61" fill="none" xmlns="http://www.w3.org/2000/svg"><path d="M59.623 19.445a9.673 9.673 0 01-6.878-2.846 9.66 9.66 0 01-2.847-6.878c0-2.6 1.011-5.038 2.847-6.878 3.793-3.789 9.959-3.793 13.752 0 3.793 3.793 3.793 9.963 0 13.752a9.66 9.66 0 01-6.878 2.847m0-17.318a7.575 7.575 0 00-5.371 2.222 7.548 7.548 0 00-2.226 5.371c0 2.03.791 3.937 2.226 5.371a7.547 7.547 0 005.371 2.226 7.547 7.547 0 005.371-2.226c2.96-2.96 2.96-7.782 0-10.742a7.575 7.575 0 00-5.371-2.222z" fill="#202223"/><path d="M36.702 44.717l-9.32-5.383v-11.36L51.98 13.1l1.101 1.82-23.567 14.256v8.933l8.252 4.766-1.064 1.843zM11.487 28.573H9.359v10.148h2.128V28.573z" fill="#202223"/><path d="M28.439 60.192l-9.853-5.69V43.128l9.853-5.69 9.853 5.69v11.374l-9.853 5.69zm-7.726-6.916l7.726 4.46 7.722-4.46v-8.918l-7.722-4.46-7.726 4.46v8.918zm-10.29-23.52L.57 24.066V12.693l9.853-5.69 9.853 5.69v11.375l-9.853 5.69zM2.698 22.84l7.725 4.46 7.722-4.46v-8.918l-7.722-4.459-7.725 4.46v8.917z" fill="#202223"/></svg>