<svg width="28" height="28" fill="none" xmlns="http://www.w3.org/2000/svg"><rect x="2.6" y="2.6" width="22.8" height="20.8" rx="1.4"/><path d="M8.676 10.678l-.094.023v4.983a.766.766 0 11-1.532 0V9.5A.95.95 0 018 8.55h.445a.95.95 0 01.84.508l2.613 4.976.094-.023V9.316a.766.766 0 111.531 0V15.5a.95.95 0 01-.95.95h-.287a.95.95 0 01-.841-.508l-2.77-5.264zm9.782 2.372h-.097l-.61 2.662a.95.95 0 01-.927.738h-.395a.95.95 0 01-.933-.77l-.768-3.977a.728.728 0 111.432-.26l.537 3.171.098.002.624-3.021a.95.95 0 01.93-.758h.099a.95.95 0 01.93.756l.63 3.023.098-.002.537-3.17a.728.728 0 111.432.259l-.768 3.977a.95.95 0 01-.933.77h-.392a.95.95 0 01-.927-.742l-.597-2.658z"/></svg>