<svg width="20" height="20" fill="none" xmlns="http://www.w3.org/2000/svg"><path d="M8.856 3.17c.235-1.268 2.053-1.268 2.288 0a1.163 1.163 0 001.945.633c.935-.888 2.406.18 1.85 1.344a1.163 1.163 0 001.203 1.655c1.279-.169 1.84 1.56.706 2.176a1.163 1.163 0 000 2.044c1.134.616.573 2.345-.707 2.176a1.163 1.163 0 00-1.201 1.654c.555 1.165-.915 2.233-1.851 1.345a1.163 1.163 0 00-1.945.632c-.235 1.269-2.053 1.269-2.288 0a1.163 1.163 0 00-1.945-.632c-.935.888-2.406-.18-1.85-1.345a1.163 1.163 0 00-1.202-1.654c-1.28.169-1.841-1.56-.707-2.176a1.163 1.163 0 000-2.044c-1.134-.616-.573-2.345.707-2.176A1.164 1.164 0 005.06 5.147c-.555-1.164.916-2.232 1.851-1.344.67.635 1.777.275 1.945-.632z" fill="#F1EEEE"/><path fill="#F1EEEE" d="M6.455 6.455h7.091v7.09h-7.09z"/><path d="M7.636 10.296l1.488 1.472c.163.162.43.15.578-.026l2.957-3.514" stroke="#fff" stroke-width="1.4" stroke-linecap="round" stroke-linejoin="round"/></svg>