<svg width="28" height="28" fill="none" xmlns="http://www.w3.org/2000/svg"><path d="M0 13.44C0 7.103 0 3.939 1.96 1.96 3.948 0 7.112 0 13.44 0h1.12c6.337 0 9.501 0 11.48 1.96C28 3.948 28 7.112 28 13.44v1.12c0 6.337 0 9.501-1.96 11.48C24.052 28 20.888 28 14.56 28h-1.12c-6.337 0-9.501 0-11.48-1.96C0 24.052 0 20.888 0 14.56v-1.12z" fill="#07F"/><path d="M14.896 20.17c-6.384 0-10.024-4.37-10.173-11.649h3.21c.103 5.338 2.455 7.597 4.322 8.063V8.522h3.014v4.6c1.839-.195 3.78-2.295 4.434-4.61h3.005a8.896 8.896 0 01-4.088 5.815 9.212 9.212 0 014.788 5.842h-3.313c-.71-2.212-2.483-3.929-4.826-4.162v4.162h-.373z" fill="#F1EEEE"/></svg>