<svg width="169" height="75" fill="none" xmlns="http://www.w3.org/2000/svg"><g clip-path="url(#clip0_560_18346)" fill="#161517"><path d="M11.745 33.657L.46 27.14V14.115L11.745 7.6l11.284 6.515v13.026l-11.284 6.516zm-8.848-7.92l8.848 5.106 8.843-5.106V15.524l-8.843-5.107-8.848 5.107v10.213zm29.48 42.771l-11.283-6.515V48.967l11.283-6.516 11.284 6.516v13.026l-11.284 6.515zm-8.847-7.92l8.847 5.107 8.844-5.107V50.375l-8.843-5.106-8.848 5.106v10.213z"/><path d="M12.96 32.295h-2.437v11.622h2.437V32.295zm28.869 18.491L31.156 44.62V31.612l28.169-17.036 1.26 2.085-26.988 16.325v10.23l9.45 5.459-1.218 2.11z"/><path d="M68.09 21.845c-2.974 0-5.77-1.157-7.877-3.26a11.062 11.062 0 01-3.26-7.876 11.07 11.07 0 013.26-7.877c4.344-4.339 11.405-4.343 15.749 0 4.343 4.344 4.343 11.41 0 15.749a11.062 11.062 0 01-7.877 3.26m0-19.832c-2.228 0-4.456.85-6.151 2.544a8.644 8.644 0 00-2.549 6.151c0 2.324.906 4.509 2.549 6.152a8.644 8.644 0 006.151 2.549 8.644 8.644 0 006.151-2.55c3.39-3.39 3.39-8.912 0-12.302a8.674 8.674 0 00-6.15-2.544m1.02 48.073h-2.462v-4.577H61.65v4.577h-2.462V38.998h2.462v4.292h4.994v-4.292h2.462v11.084zm13.788-11.084l-4.781 13.248c-.356.957-.876 1.62-1.556 1.985-.68.364-1.496.546-2.437.546a6.06 6.06 0 01-1.044-.095 6.462 6.462 0 01-1.166-.321l.511-2.258c.343.125.655.216.94.268.287.052.538.078.764.078.737 0 1.24-.334 1.508-.997l.438-1.07-4.235-11.38h2.558l3.043 8.384 2.817-8.384h2.64v-.004zm13.373 5.635h-2.211V41.21h-2.094v6.658h2.462v2.211h-7.373v-2.21H89.5v-6.66h-2.116v3.425h-2.189v-5.635h11.072v5.635zm2.811-5.636h2.462v.997c.469-.42.941-.737 1.422-.945a4.107 4.107 0 011.647-.317c.716 0 1.375.144 1.986.434a4.64 4.64 0 011.569 1.2c.438.512.78 1.128 1.036 1.843.256.715.382 1.496.382 2.336 0 .841-.126 1.63-.382 2.341-.256.711-.598 1.327-1.036 1.838a4.62 4.62 0 01-1.569 1.197 4.631 4.631 0 01-1.986.429c-.619 0-1.166-.113-1.647-.33a5.836 5.836 0 01-1.422-.958v5.45h-2.462v-15.52.005zm2.462 8.12a2.99 2.99 0 001.123.758c.455.178.893.269 1.314.269.927 0 1.682-.33 2.267-.989.581-.659.875-1.526.875-2.596 0-1.071-.29-1.942-.875-2.61-.581-.668-1.34-1.001-2.267-1.001a3.77 3.77 0 00-1.314.255c-.455.17-.832.42-1.123.746v5.172-.005zm10.827-8.119h2.462v7.62l4.366-7.62h3.09v11.084h-2.462V42.02l-4.603 8.063h-2.853V38.998zM71.139 69.473v6.004h-2.211v-3.793h-9.74V60.6h2.462v8.869h4.994v-8.87h2.462v8.87h2.033v.004zm1.345-8.873h2.463v7.62l4.365-7.62h3.09v11.084H79.94v-8.063l-4.603 8.063h-2.853V60.6zm24.074 5.551c0 .863-.138 1.647-.411 2.354a5.198 5.198 0 01-1.18 1.825 5.397 5.397 0 01-1.837 1.196c-.716.286-1.509.43-2.389.43-.88 0-1.651-.144-2.367-.43a5.398 5.398 0 01-1.838-1.196 5.198 5.198 0 01-1.179-1.825c-.273-.707-.412-1.491-.412-2.354s.139-1.621.412-2.336a5.324 5.324 0 011.18-1.856 5.224 5.224 0 011.837-1.2c.716-.282 1.504-.421 2.367-.421s1.678.139 2.389.42a5.236 5.236 0 011.838 1.201c.511.52.901 1.136 1.179 1.855a6.52 6.52 0 01.411 2.337zm-2.462.004a4.39 4.39 0 00-.23-1.421 3.275 3.275 0 00-.667-1.15 3.197 3.197 0 00-1.062-.754 3.367 3.367 0 00-1.392-.281c-.511 0-.988.095-1.4.282a3.125 3.125 0 00-1.044.754 3.326 3.326 0 00-.66 1.149c-.155.45-.23.923-.23 1.421 0 .499.079 1.002.23 1.43.157.43.373.807.66 1.132.286.325.632.577 1.044.755.412.177.876.268 1.4.268.525 0 .976-.09 1.392-.268.416-.178.767-.43 1.062-.755.29-.325.516-.702.668-1.131.156-.43.23-.906.23-1.43zm14.897-5.559V71.68h-2.463v-8.869h-4.187v5.584c0 .641-.096 1.192-.286 1.647-.191.455-.442.823-.755 1.101-.312.277-.68.481-1.105.611-.425.13-.88.195-1.361.195-.668 0-1.153-.1-1.461-.299l.308-2.115c.117.07.247.117.386.151.138.035.32.052.541.052.85 0 1.275-.446 1.275-1.335v-7.811h9.108v.004zm14.159 5.555c0 .863-.138 1.647-.412 2.354a5.19 5.19 0 01-1.179 1.825 5.386 5.386 0 01-1.838 1.196c-.715.286-1.508.43-2.388.43-.88 0-1.652-.144-2.367-.43a5.395 5.395 0 01-1.838-1.196 5.19 5.19 0 01-1.179-1.825c-.273-.707-.412-1.491-.412-2.354s.139-1.621.412-2.336a5.315 5.315 0 011.179-1.856 5.22 5.22 0 011.838-1.2c.715-.282 1.504-.421 2.367-.421.862 0 1.677.139 2.388.42a5.218 5.218 0 011.838 1.201c.512.52.902 1.136 1.179 1.855a6.5 6.5 0 01.412 2.337zm-2.462.004a4.39 4.39 0 00-.23-1.421 3.279 3.279 0 00-.667-1.15 3.203 3.203 0 00-1.062-.754 3.368 3.368 0 00-1.392-.281c-.511 0-.988.095-1.4.282a3.123 3.123 0 00-1.045.754 3.326 3.326 0 00-.659 1.149c-.156.45-.229.923-.229 1.421 0 .499.078 1.002.229 1.43.156.43.373.807.659 1.132a2.9 2.9 0 001.045.755c.412.177.876.268 1.4.268.525 0 .976-.09 1.392-.268.416-.178.767-.43 1.062-.755.29-.325.516-.702.667-1.131.156-.43.23-.906.23-1.43zm4.974-5.559h10.499v2.068h-8.037v9.012h-2.462V60.592v.004zm13.511 11.014h-2.995v-2.995h2.995v2.996zm3.989-11.082h2.462v.997c.468-.42.941-.737 1.422-.945.481-.208 1.028-.316 1.647-.316.716 0 1.375.143 1.986.433a4.65 4.65 0 011.569 1.2c.438.513.78 1.128 1.036 1.843a6.91 6.91 0 01.382 2.337c0 .84-.126 1.63-.382 2.34-.256.712-.598 1.327-1.036 1.839a4.62 4.62 0 01-1.569 1.196 4.63 4.63 0 01-1.986.43 3.975 3.975 0 01-1.647-.33 5.82 5.82 0 01-1.422-.958v5.453h-2.462V60.528zm2.462 8.12c.295.325.668.576 1.123.754a3.61 3.61 0 001.314.268c.927 0 1.681-.329 2.267-.988.581-.659.875-1.526.875-2.597 0-1.07-.29-1.942-.875-2.61-.581-.667-1.34-1-2.267-1a3.77 3.77 0 00-1.314.255c-.455.17-.832.42-1.123.746v5.171zm15.784 7.396V71.62c-1.079.169-2.063.056-2.939-.352-.88-.403-1.578-1.062-2.093-1.972-.516-.91-.776-2.05-.776-3.42s.26-2.501.776-3.42c.515-.92 1.213-1.574 2.093-1.977.88-.399 1.86-.516 2.939-.343V56.81h2.198v3.325c1.08-.169 2.064-.056 2.939.343.88.399 1.578 1.058 2.094 1.977.516.919.776 2.054.776 3.42 0 1.365-.26 2.51-.776 3.42-.516.91-1.214 1.57-2.094 1.972-.88.404-1.859.52-2.939.352v4.425h-2.198zm0-6.64V62.38c-.555-.096-1.04-.083-1.452.048a2.164 2.164 0 00-1.027.658c-.269.313-.473.707-.611 1.18-.139.476-.204 1.014-.204 1.617 0 .602.069 1.148.212 1.62.139.473.351.868.633 1.18a2.23 2.23 0 001.036.663c.412.126.884.148 1.418.056h-.005zm2.198 0c.533.09 1.006.073 1.418-.053a2.196 2.196 0 001.031-.645c.278-.308.486-.698.633-1.175a5.727 5.727 0 00.217-1.648c0-.624-.069-1.17-.204-1.642-.138-.473-.342-.863-.611-1.175a2.062 2.062 0 00-1.027-.646c-.416-.122-.898-.13-1.453-.035v7.023l-.004-.005z"/></g><defs><clipPath id="clip0_560_18346"><path fill="#fff" d="M0 0h169v76H0z"/></clipPath></defs></svg>