<svg width="24" height="24" fill="none" xmlns="http://www.w3.org/2000/svg"><path fill-rule="evenodd" clip-rule="evenodd" d="M6.25 5.5A3.25 3.25 0 0112 3.423 3.25 3.25 0 0117.062 7.5H18a2.5 2.5 0 012.5 2.5v1.25a.75.75 0 01-.75.75h-6.7a.3.3 0 01-.3-.3V8.24a3.267 3.267 0 01-.75-.663 3.266 3.266 0 01-.75.662v3.46a.3.3 0 01-.3.3h-6.7a.75.75 0 01-.75-.75V10A2.5 2.5 0 016 7.5h.938a3.236 3.236 0 01-.688-2zm5 0a1.75 1.75 0 10-3.5 0 1.75 1.75 0 003.5 0zm1.5 0a1.75 1.75 0 103.502 0 1.75 1.75 0 00-3.502 0z" fill="#ED7297"/><path d="M11.252 13.65a.3.3 0 00-.3-.3H5.65a.833.833 0 00-.82.692 11.592 11.592 0 000 3.916l.224 1.309a2.008 2.008 0 001.755 1.656l1.065.119c1.02.114 2.044.185 3.07.215a.299.299 0 00.307-.3V13.65zm1.806 7.607a.298.298 0 01-.306-.3V13.65a.3.3 0 01.3-.3h5.3a.83.83 0 01.82.692c.224 1.296.224 2.62 0 3.916l-.222 1.309a2.008 2.008 0 01-1.756 1.656l-1.065.119c-1.02.114-2.045.185-3.071.215z" fill="#ED7297"/></svg>