<svg width="59" height="36" fill="none" xmlns="http://www.w3.org/2000/svg"><g clip-path="url(#clip0_1108_2203)" fill="#202223"><path d="M26.28 6.46L15.09 0 3.897 6.46v12.925l11.191 6.46 11.191-6.46V6.46zM15.09 2.794l8.773 5.067v10.13l-8.774 5.065-8.774-5.067V7.857l8.774-5.064z"/><path d="M34.499.326L24.516 6.09l1.208 2.093 9.983-5.764L34.5.326zM16.308 23.855H13.89v11.528h2.417V23.855zm3.718-5.434h-2.443V13.88H12.63v4.541h-2.443V7.43h2.443v4.258h4.953V7.43h2.443v10.994-.003zm8.312 6.914h-2.97v-2.972h2.97v2.972zm2.92-10.994H33.7v.992c.463-.417.932-.73 1.409-.938.477-.207 1.02-.313 1.635-.313.707 0 1.365.143 1.968.43a4.621 4.621 0 011.557 1.192 5.716 5.716 0 011.026 1.829c.251.712.378 1.484.378 2.318 0 .834-.127 1.617-.378 2.324-.251.707-.593 1.316-1.026 1.82a4.57 4.57 0 01-1.557 1.187 4.603 4.603 0 01-1.968.425c-.614 0-1.158-.109-1.635-.329a5.671 5.671 0 01-1.41-.95v5.406h-2.442V14.34zm2.443 8.054c.29.324.663.572 1.114.751.453.176.886.267 1.303.267.92 0 1.668-.326 2.245-.982.578-.653.868-1.513.868-2.575 0-1.062-.29-1.925-.867-2.588-.578-.66-1.327-.992-2.246-.992-.418 0-.853.086-1.303.254a2.75 2.75 0 00-1.114.738v5.127zm15.657 7.341v-4.388c-1.073.169-2.044.055-2.917-.347-.873-.401-1.565-1.052-2.078-1.956-.513-.901-.77-2.033-.77-3.39 0-1.358.257-2.482.77-3.392.513-.909 1.205-1.562 2.078-1.96.873-.397 1.844-.51 2.917-.343v-3.3h2.178v3.3c1.073-.168 2.044-.057 2.917.342.873.397 1.565 1.05 2.078 1.961.513.91.769 2.04.769 3.391 0 1.353-.256 2.487-.77 3.391-.512.904-1.204 1.555-2.077 1.956-.873.402-1.844.516-2.917.347v4.389h-2.178zm0-6.587v-6.963c-.55-.096-1.031-.08-1.44.046a2.115 2.115 0 00-1.019.653c-.27.308-.471.7-.606 1.171a5.846 5.846 0 00-.205 1.604c0 .595.07 1.14.21 1.608.14.47.347.86.627 1.171.277.314.622.531 1.029.658.406.124.875.145 1.404.057v-.005zm2.178 0c.529.088.997.072 1.404-.052a2.196 2.196 0 001.024-.642c.274-.306.484-.695.626-1.166.143-.472.213-1.016.213-1.635s-.068-1.16-.205-1.63c-.135-.468-.337-.857-.606-1.165a2.104 2.104 0 00-1.018-.642c-.412-.12-.891-.13-1.44-.037v6.964l.002.005z"/></g><defs><clipPath id="clip0_1108_2203"><path fill="#fff" transform="translate(3.898)" d="M0 0h53.408v35.383H0z"/></clipPath></defs></svg>