<svg width="256" height="70" fill="none" xmlns="http://www.w3.org/2000/svg"><path d="M11.163 34.625L0 28.18V15.293l11.163-6.445 11.162 6.445V28.18l-11.162 6.445zM2.41 26.79l8.753 5.052 8.748-5.052V16.687l-8.748-5.052-8.753 5.052V26.79zm29.167 42.316L20.414 62.66V49.774l11.163-6.446 11.162 6.445V62.66l-11.162 6.446zm-8.753-7.835l8.753 5.051 8.748-5.051V51.167l-8.748-5.051-8.753 5.051v10.104z" fill="#202223"/><path d="M12.371 33.285h-2.41v11.497h2.41V33.285zm28.562 18.29l-10.558-6.098v-12.87l27.866-16.853 1.248 2.063-26.7 16.15v10.12l9.349 5.4-1.205 2.088z" fill="#202223"/><path d="M66.9 22.944a10.958 10.958 0 01-7.792-3.225 10.944 10.944 0 01-3.225-7.792 10.95 10.95 0 013.225-7.792c4.297-4.292 11.282-4.297 15.58 0 4.296 4.297 4.296 11.287 0 15.58a10.944 10.944 0 01-7.793 3.225m0-19.62c-2.204 0-4.408.84-6.085 2.518a8.551 8.551 0 00-2.521 6.085c0 2.298.896 4.46 2.521 6.085a8.551 8.551 0 006.085 2.522 8.55 8.55 0 006.086-2.522c3.353-3.353 3.353-8.817 0-12.17a8.581 8.581 0 00-6.086-2.518zM69.8 54.64h-2.706v-5.034h-5.49v5.034h-2.706V42.457h2.706v4.717h5.49v-4.717H69.8V54.64zm15.142-12.183L79.69 57.02c-.39 1.055-.965 1.784-1.711 2.183-.75.399-1.642.6-2.68.6a6.955 6.955 0 01-2.432-.454l.562-2.483c.373.137.72.236 1.034.296.313.056.591.086.836.086.81 0 1.364-.365 1.66-1.098l.484-1.175-4.653-12.51h2.809l3.345 9.216 3.096-9.215h2.903v-.009zm14.717 6.193h-2.431v-3.765h-2.303v7.32h2.706v2.431h-8.105v-2.431h2.693v-7.32H89.89v3.765h-2.406v-6.197h12.17v6.197h.005zm3.083-6.195h2.706v1.098c.515-.463 1.034-.806 1.561-1.038.528-.231 1.132-.347 1.81-.347.785 0 1.514.159 2.183.476a5.103 5.103 0 011.723 1.32c.481.563.858 1.24 1.137 2.025.279.789.42 1.647.42 2.569 0 .922-.141 1.792-.42 2.577-.279.785-.656 1.458-1.137 2.02a5.06 5.06 0 01-1.723 1.312 5.109 5.109 0 01-2.183.472c-.678 0-1.282-.12-1.81-.365a6.319 6.319 0 01-1.561-1.055v5.991h-2.706V42.451v.004zm2.706 8.929c.322.356.733.634 1.235.832.502.197.982.295 1.445.295 1.021 0 1.849-.36 2.492-1.085.639-.724.961-1.676.961-2.855 0-1.18-.322-2.136-.961-2.87-.639-.733-1.471-1.097-2.492-1.097-.463 0-.943.094-1.445.283a3.062 3.062 0 00-1.235.819v5.682-.004zm11.919-8.927h2.706v8.38l4.799-8.38h3.4V54.64h-2.705v-8.864l-5.061 8.864h-3.139V42.457zm27.741 9.752v6.6h-2.431V54.64h-10.708V42.457h2.706v9.752h5.489v-9.752h2.706v9.752h2.238zm1.47-9.752h2.706v8.38l4.799-8.38h3.4V54.64h-2.706v-8.864l-5.06 8.864h-3.139V42.457zm26.473 6.101c0 .952-.15 1.814-.45 2.59a5.714 5.714 0 01-1.295 2.007 5.92 5.92 0 01-2.02 1.312c-.785.313-1.66.472-2.629.472-.969 0-1.818-.159-2.603-.472a5.92 5.92 0 01-2.02-1.312 5.742 5.742 0 01-1.295-2.007c-.3-.776-.45-1.638-.45-2.59s.15-1.78.45-2.569a5.887 5.887 0 011.295-2.041 5.758 5.758 0 012.02-1.32c.785-.31 1.651-.464 2.603-.464.952 0 1.844.154 2.629.463.785.309 1.458.75 2.02 1.321.562.57.995 1.252 1.295 2.041.3.79.45 1.647.45 2.569zm-2.706.009c0-.55-.085-1.072-.253-1.566a3.534 3.534 0 00-.737-1.265 3.594 3.594 0 00-1.167-.832 3.67 3.67 0 00-1.531-.308c-.566 0-1.085.103-1.535.308a3.4 3.4 0 00-1.145.832 3.67 3.67 0 00-.725 1.265 4.855 4.855 0 00-.253 1.566c0 .548.086 1.097.253 1.57.168.47.412.887.725 1.243.313.356.695.634 1.145.832.45.197.965.296 1.535.296a3.79 3.79 0 001.531-.296 3.302 3.302 0 001.167-.832c.321-.356.566-.772.737-1.244.168-.472.253-.995.253-1.57zm16.375-6.11V54.64h-2.706v-9.752h-4.601v6.142c0 .707-.103 1.312-.313 1.813-.21.502-.485.905-.832 1.21-.343.304-.75.532-1.218.673a4.991 4.991 0 01-1.497.215c-.733 0-1.269-.108-1.608-.327l.339-2.328c.129.073.275.129.425.167.154.039.351.056.596.056.93 0 1.398-.489 1.398-1.467v-8.585h10.017zm15.566 6.101c0 .952-.15 1.814-.451 2.59a5.714 5.714 0 01-1.295 2.007 5.92 5.92 0 01-2.02 1.312c-.784.313-1.659.472-2.628.472-.97 0-1.819-.159-2.603-.472a5.92 5.92 0 01-2.02-1.312 5.714 5.714 0 01-1.295-2.007c-.3-.776-.451-1.638-.451-2.59s.151-1.78.451-2.569a5.86 5.86 0 011.295-2.041 5.758 5.758 0 012.02-1.32c.784-.31 1.651-.464 2.603-.464.952 0 1.844.154 2.628.463.785.309 1.458.75 2.02 1.321.562.57.995 1.252 1.295 2.041.301.79.451 1.647.451 2.569zm-2.706.009c0-.55-.086-1.072-.253-1.566a3.536 3.536 0 00-.738-1.265 3.6 3.6 0 00-1.166-.832 3.673 3.673 0 00-1.531-.308c-.566 0-1.085.103-1.536.308a3.4 3.4 0 00-1.145.832 3.653 3.653 0 00-.724 1.265 4.828 4.828 0 00-.253 1.566c0 .548.085 1.097.253 1.57.167.47.411.887.724 1.243.313.356.695.634 1.145.832.451.197.965.296 1.536.296.57 0 1.076-.099 1.531-.296a3.307 3.307 0 001.166-.832 3.74 3.74 0 00.738-1.244c.167-.472.253-.995.253-1.57zm5.459-6.11h11.544v2.273h-8.838v9.91h-2.706V42.457zm16.372 12.18h-3.294v-3.293h3.294v3.293zm4.917-12.182h2.706v1.098c.515-.463 1.034-.806 1.561-1.038.528-.231 1.132-.347 1.81-.347.785 0 1.514.159 2.183.476a5.103 5.103 0 011.723 1.32c.481.563.858 1.24 1.137 2.025.279.789.42 1.647.42 2.569 0 .922-.141 1.792-.42 2.577-.279.785-.656 1.458-1.137 2.02a5.06 5.06 0 01-1.723 1.312 5.109 5.109 0 01-2.183.472c-.678 0-1.282-.12-1.81-.365a6.319 6.319 0 01-1.561-1.055v5.991h-2.706V42.451v.004zm2.706 8.929c.322.356.733.634 1.235.832.502.197.982.295 1.445.295 1.021 0 1.849-.36 2.492-1.085.639-.724.96-1.676.96-2.855 0-1.18-.321-2.136-.96-2.87-.639-.733-1.471-1.097-2.492-1.097-.463 0-.943.094-1.445.283a3.062 3.062 0 00-1.235.819v5.682-.004zm17.167 8.132v-4.722c-1.154.184-2.2.06-3.139-.373-.939-.429-1.681-1.132-2.234-2.101-.554-.97-.828-2.187-.828-3.645 0-1.458.274-2.668.828-3.646.553-.977 1.295-1.68 2.234-2.11.939-.428 1.985-.548 3.139-.368V39h2.346v3.55c1.153-.184 2.2-.06 3.139.37.939.428 1.681 1.127 2.234 2.11.553.977.828 2.195.828 3.645 0 1.449-.275 2.675-.828 3.645-.553.969-1.295 1.672-2.234 2.101-.939.429-1.986.553-3.139.373v4.722h-2.346zm0-7.085V44.94c-.592-.102-1.106-.085-1.548.048a2.333 2.333 0 00-1.094.699c-.287.334-.506.75-.652 1.26a6.264 6.264 0 00-.218 1.724c0 .643.073 1.227.223 1.733.15.502.373.922.673 1.26.3.335.669.57 1.106.708.438.137.944.154 1.51.06zm2.346 0c.57.095 1.072.077 1.509-.056a2.37 2.37 0 001.102-.69c.296-.33.519-.746.674-1.252.154-.506.231-1.094.231-1.758 0-.665-.073-1.248-.219-1.754-.145-.502-.364-.922-.651-1.253a2.255 2.255 0 00-1.094-.69c-.442-.129-.956-.142-1.548-.039v7.492h-.004z" fill="#202223"/></svg>