<svg width="72" height="72" fill="none" xmlns="http://www.w3.org/2000/svg"><path fill-rule="evenodd" clip-rule="evenodd" d="M72 36c0 19.882-16.118 36-36 36S0 55.882 0 36 16.118 0 36 0s36 16.118 36 36zm-2.88 0c0 18.292-14.828 33.12-33.12 33.12C17.708 69.12 2.88 54.292 2.88 36 2.88 17.708 17.708 2.88 36 2.88c18.292 0 33.12 14.828 33.12 33.12z" fill="#5DC600"/><path fill-rule="evenodd" clip-rule="evenodd" d="M32.281 48.71c.892.794 2.26.71 3.048-.186l19.687-22.373a1.44 1.44 0 10-2.163-1.902l-19.218 21.85-12.583-11.235a1.44 1.44 0 00-1.915 2.151L32.281 48.71z" fill="#5DC600"/></svg>