<?xml version="1.0" encoding="utf-8"?><svg viewBox="0 0 143 61" xmlns="http://www.w3.org/2000/svg" xmlns:xlink="http://www.w3.org/1999/xlink"><style>:root>svg{display:none}:root>svg:target{display:block}</style><svg fill="none" viewBox="0 0 28 28" id="Nw" xmlns="http://www.w3.org/2000/svg"><rect x="2.6" y="2.6" width="22.8" height="20.8" rx="1.4"/><path d="M8.676 10.678l-.094.023v4.983a.766.766 0 11-1.532 0V9.5A.95.95 0 018 8.55h.445a.95.95 0 01.84.508l2.613 4.976.094-.023V9.316a.766.766 0 111.531 0V15.5a.95.95 0 01-.95.95h-.287a.95.95 0 01-.841-.508l-2.77-5.264zm9.782 2.372h-.097l-.61 2.662a.95.95 0 01-.927.738h-.395a.95.95 0 01-.933-.77l-.768-3.977a.728.728 0 111.432-.26l.537 3.171.098.002.624-3.021a.95.95 0 01.93-.758h.099a.95.95 0 01.93.756l.63 3.023.098-.002.537-3.17a.728.728 0 111.432.259l-.768 3.977a.95.95 0 01-.933.77h-.392a.95.95 0 01-.927-.742l-.597-2.658z"/></svg><svg fill="none" viewBox="0 0 26 33" id="apple" xmlns="http://www.w3.org/2000/svg"><path d="M18.79 8.31a6.55 6.55 0 00-2.228.37 30.83 30.83 0 00-1.88.74c-.565.246-1.055.369-1.469.37-.664 0-1.423-.234-2.278-.701-.856-.468-1.806-.702-2.85-.702-1.312 0-2.573.37-3.785 1.11-1.212.739-2.204 1.822-2.975 3.249C.555 14.173.168 15.93.167 18.02c0 1.937.315 3.874.946 5.813.631 1.937 1.412 3.569 2.341 4.893a33.297 33.297 0 002.302 2.918c.739.825 1.606 1.237 2.602 1.237.664 0 1.237-.115 1.718-.344a32.5 32.5 0 011.518-.675c.531-.221 1.195-.332 1.992-.332.83 0 1.493.106 1.992.318.498.213.975.429 1.43.65.456.22 1.05.33 1.78.33 1.062 0 1.98-.42 2.752-1.26.772-.84 1.49-1.762 2.154-2.765.747-1.121 1.29-2.15 1.63-3.085.34-.935.51-1.436.51-1.504-.017 0-.237-.119-.66-.357-.423-.238-.908-.612-1.456-1.122-.548-.51-1.03-1.181-1.444-2.013-.414-.832-.622-1.852-.623-3.059 0-1.377.27-2.511.81-3.403.54-.891 1.087-1.559 1.642-2.001.556-.443.859-.698.909-.765-.714-1.037-1.499-1.776-2.354-2.217-.855-.442-1.64-.714-2.353-.816-.714-.102-1.22-.153-1.519-.153l.004.002zm-1.146-2.676a6.869 6.869 0 001.22-2.077c.3-.79.45-1.6.448-2.434 0-.305-.008-.526-.025-.662-.814.017-1.656.264-2.527.739-.871.475-1.59 1.053-2.154 1.734-.449.526-.847 1.176-1.195 1.95a5.859 5.859 0 00-.523 2.433c0 .272.025.467.075.586.033 0 .09.004.174.013.082.008.174.013.274.013.696 0 1.447-.217 2.253-.65.805-.432 1.464-.98 1.978-1.644l.002-.001z" fill="#202223"/></svg><svg viewBox="0 0 23 22" id="arrow" xmlns="http://www.w3.org/2000/svg"><path d="M10.749.733l10.008 10.008m0 0L10.749 20.75m10.008-10.008H.306"/></svg><svg fill="none" viewBox="0 0 24 24" id="arrow-black" xmlns="http://www.w3.org/2000/svg"><path d="M3.935 4.8h15.44m0 0v15.44m0-15.44L3.6 20.576" stroke="#202223" stroke-width="2"/></svg><svg fill="none" viewBox="0 0 18 18" id="arrow-black-down" xmlns="http://www.w3.org/2000/svg"><path d="M15.874 9.344l-6.812 6.459m0 0l-6.594-6.46m6.594 6.46V.748" stroke="#202223" stroke-width="2"/></svg><svg fill="none" viewBox="0 0 24 24" id="arrow-left" xmlns="http://www.w3.org/2000/svg"><path d="M4.25 12.273h14M10.3 18.1l-6.8-5.8 6.8-6.25" stroke="#202223" stroke-width="1.5" stroke-linecap="square" stroke-linejoin="round"/></svg><svg fill="none" viewBox="0 0 16 16" id="arrow-right" xmlns="http://www.w3.org/2000/svg"><path d="M8.072 2.158l5.927 5.926m0 0l-5.927 5.927m5.927-5.927H1.886" stroke="#fff" stroke-width="1.6"/></svg><svg fill="none" viewBox="0 0 12 12" id="arrow-top-right" xmlns="http://www.w3.org/2000/svg"><path d="M1.962 2.4h7.47m0 0v7.47m0-7.47L1.8 10.032" stroke="#fff" stroke-width="1.2"/></svg><svg fill="none" viewBox="0 0 16 16" id="arrow-white" xmlns="http://www.w3.org/2000/svg"><path d="M2.623 3.2h10.294m0 0v10.294m0-10.294L2.399 13.717" stroke="#fff" stroke-width="2"/></svg><svg fill="none" viewBox="0 0 18 18" id="arrow-white-down" xmlns="http://www.w3.org/2000/svg"><path d="M15.874 9.344l-6.812 6.459m0 0l-6.594-6.46m6.594 6.46V.748" stroke="#fff" stroke-width="2"/></svg><svg fill="none" viewBox="0 0 28 28" id="basket" xmlns="http://www.w3.org/2000/svg"><path d="M2.6 13v-2.4h22.8V13c0 6.296-5.104 11.4-11.4 11.4S2.6 19.296 2.6 13z"/><path d="M20 13V9A6 6 0 008 9v4"/></svg><svg viewBox="0 0 20 20" id="bell" xmlns="http://www.w3.org/2000/svg"><path d="M10 19.457c-.705 0-1.31-.456-1.535-1.086h3.07A1.637 1.637 0 0110 19.457z" fill="#F2F0EC"/><path d="M9.998 1v1.629m0 0C8.188 2.809 4.57 3.93 4.57 6.97m5.428-4.34c1.81.18 5.429 1.302 5.429 4.342V16.2M4.57 6.971V16.2m0-9.229V16.2m0 0H2.398m2.172 0h10.857m0 0h2.171"/></svg><svg fill="none" viewBox="0 0 23 23" id="chat" xmlns="http://www.w3.org/2000/svg"><path clip-rule="evenodd" d="M18.757 18.923c-3.21 3.21-7.96 3.903-11.85 2.105-.573-.231-1.044-.418-1.491-.418-1.247.007-2.798 1.216-3.604.41s.403-2.358.403-3.612c0-.448-.18-.91-.41-1.485C.005 12.035.7 7.282 3.909 4.073c4.096-4.097 10.751-4.097 14.848 0 4.104 4.104 4.096 10.753 0 14.85z" stroke="#202223" stroke-width="1.2" stroke-linecap="round" stroke-linejoin="round"/><path fill-rule="evenodd" clip-rule="evenodd" d="M6.289 10.287a1 1 0 100 2h.009a1 1 0 100-2h-.01zm3.98 1a1 1 0 011-1h.009a1 1 0 110 2h-.01a1 1 0 01-1-1zm4.977 0a1 1 0 011-1h.01a1 1 0 110 2h-.01a1 1 0 01-1-1z" fill="#202223"/></svg><svg fill="none" viewBox="0 0 12 7" id="chevron-black" xmlns="http://www.w3.org/2000/svg"><path d="M1 1l5 5 5-5" stroke="#000" stroke-width="2" stroke-linecap="round" stroke-linejoin="round"/></svg><svg fill="none" viewBox="0 0 24 24" id="close" xmlns="http://www.w3.org/2000/svg"><path d="M18 6L6 18M6 6l12 12" stroke="#000" stroke-width="2" stroke-linecap="round" stroke-linejoin="round"/></svg><svg fill="none" viewBox="0 0 18 18" id="comment" xmlns="http://www.w3.org/2000/svg"><path d="M3.6 13.8h-.249l-.175.176-2.064 2.063a.3.3 0 01-.512-.212V1.8A1.2 1.2 0 011.8.6h14.4a1.2 1.2 0 011.2 1.2v10.8a1.2 1.2 0 01-1.2 1.2H3.6z" stroke="#202223" stroke-width="1.2"/><path d="M4.5 5.6a.6.6 0 01.6-.6h7.718a.6.6 0 110 1.2H5.1a.6.6 0 01-.6-.6zm0 3.797a.6.6 0 01.6-.6h7.8a.6.6 0 110 1.2H5.1a.6.6 0 01-.6-.6z" fill="#202223"/></svg><svg fill="none" viewBox="0 0 18 18" id="dislike" xmlns="http://www.w3.org/2000/svg"><g clip-path="url(#aqa)" stroke="#202223" stroke-width="1.2"><path d="M15.75 11.4H14.1V2.1h1.65a1.65 1.65 0 011.65 1.65v6a1.65 1.65 0 01-1.65 1.65zm-7.65.697l.116-.698H2.072a1.464 1.464 0 01-1.44-1.726L1.5 4.891a3.4 3.4 0 013.345-2.792h6.562v9.758l-1.729 3.454a1.085 1.085 0 01-1.392.502 1.102 1.102 0 01-.606-1.204l.001-.008.001-.008.417-2.496z"/></g><defs><clipPath id="aqa"><path fill="#fff" transform="rotate(-180 9 9)" d="M0 0h18v18H0z"/></clipPath></defs></svg><svg fill="none" viewBox="0 0 24 24" id="edit" xmlns="http://www.w3.org/2000/svg"><path d="M11.504 7.12L3.5 15l.902 4.51 4.06.45 7.93-7.957M11.505 7.12l2.427-2.463a3.482 3.482 0 114.922 4.925l-2.46 2.422m-4.89-4.884l4.89 4.884" stroke="#A39B9B" stroke-width="2"/></svg><svg fill="none" viewBox="0 0 28 28" id="fav" xmlns="http://www.w3.org/2000/svg"><path d="M13.124 7.422l.873 1.56.873-1.56a5.683 5.683 0 012.06-2.111 5.772 5.772 0 012.828-.807 6.171 6.171 0 014.222 1.952 6.026 6.026 0 011.618 4.337v.038c0 1.5-.618 3.142-1.656 4.822-1.032 1.67-2.429 3.298-3.867 4.746a49.382 49.382 0 01-6.045 5.133l-.033.024-.031-.022h-.002a49.576 49.576 0 01-6.045-5.136c-1.439-1.448-2.836-3.075-3.867-4.745-1.039-1.68-1.656-3.323-1.656-4.822v-.018l-.001-.02a6.026 6.026 0 011.618-4.337 6.171 6.171 0 014.222-1.952c.998.02 1.974.299 2.829.807a5.683 5.683 0 012.06 2.11z" stroke="#161517" stroke-width="2"/></svg><svg fill="none" viewBox="0 0 24 24" id="fav-act" xmlns="http://www.w3.org/2000/svg"><path d="M20.84 4.61a5.5 5.5 0 00-7.78 0L12 5.67l-1.06-1.06a5.501 5.501 0 10-7.78 7.78l1.06 1.06L12 21.23l7.78-7.78 1.06-1.06a5.499 5.499 0 000-7.78z" fill="#F5B879"/></svg><svg fill="none" viewBox="0 0 20 20" id="fav-mobile" xmlns="http://www.w3.org/2000/svg"><path d="M17.367 3.842a4.583 4.583 0 00-6.484 0L10 4.725l-.883-.883a4.584 4.584 0 10-6.484 6.483l.884.883L10 17.692l6.483-6.484.884-.883a4.585 4.585 0 000-6.483z" fill="#fff" stroke="#202223" stroke-width="2" stroke-linecap="round" stroke-linejoin="round"/></svg><svg fill="none" viewBox="0 0 20 20" id="fav-mobile-act" xmlns="http://www.w3.org/2000/svg"><path d="M17.367 3.842a4.583 4.583 0 00-6.484 0L10 4.725l-.883-.883a4.584 4.584 0 10-6.484 6.483l.884.883L10 17.692l6.483-6.484.884-.883a4.585 4.585 0 000-6.483v0z" fill="#F5B879" stroke="#F5B879" stroke-width="2" stroke-linecap="round" stroke-linejoin="round"/></svg><svg fill="none" viewBox="0 0 18 18" id="filter" xmlns="http://www.w3.org/2000/svg"><path d="M1.005 4.022h3.018v1.695H1.005V4.022zm7.544 0h9.053v2.012H8.549V4.022zm6.039 9.054h3.018v1.694h-3.018v-1.694zm-13.583 0h9.053v2.012H1.005v-2.012z" fill="#202223"/><circle cx="6.287" cy="4.777" r="2.925" stroke="#202223" stroke-width="1.694"/><circle cx="12.321" cy="13.829" r="2.925" stroke="#202223" stroke-width="1.694"/></svg><svg fill="none" viewBox="0 0 28 28" id="forum" xmlns="http://www.w3.org/2000/svg"><path clip-rule="evenodd" d="M21.757 20.923c-3.209 3.21-7.96 3.903-11.85 2.105-.573-.231-1.044-.418-1.491-.418-1.247.007-2.798 1.216-3.604.41s.403-2.358.403-3.612c0-.448-.18-.91-.41-1.485-1.8-3.888-1.105-8.641 2.104-11.85 4.096-4.097 10.752-4.097 14.848 0 4.104 4.104 4.096 10.753 0 14.85z"/><path clip-rule="evenodd" d="M9.289 12.287a1 1 0 100 2h.01a1 1 0 000-2h-.01zm3.98 1a1 1 0 011-1h.009a1 1 0 110 2h-.01a1 1 0 01-1-1zm4.978 0a1 1 0 011-1h.009a1 1 0 110 2h-.01a1 1 0 01-1-1z"/></svg><svg fill="none" viewBox="0 0 28 28" id="google" xmlns="http://www.w3.org/2000/svg"><path fill-rule="evenodd" clip-rule="evenodd" d="M27.703 14.318c0-.992-.09-1.947-.255-2.863H14.263v5.415h7.534a6.44 6.44 0 01-2.793 4.226v3.512h4.524c2.647-2.437 4.175-6.026 4.175-10.29z" fill="#4285F4"/><path fill-rule="evenodd" clip-rule="evenodd" d="M14.262 28c3.78 0 6.949-1.253 9.265-3.392l-4.524-3.512c-1.254.84-2.857 1.336-4.741 1.336-3.646 0-6.733-2.463-7.834-5.772H1.751v3.627C4.055 24.863 8.789 28 14.261 28z" fill="#34A853"/><path fill-rule="evenodd" clip-rule="evenodd" d="M6.43 16.66A8.416 8.416 0 015.99 14c0-.923.16-1.82.44-2.66V7.713H1.751A13.995 13.995 0 00.262 14c0 2.26.542 4.398 1.49 6.288l4.677-3.628z" fill="#FBBC05"/><path fill-rule="evenodd" clip-rule="evenodd" d="M14.262 5.568c2.055 0 3.9.707 5.352 2.094l4.015-4.016C21.205 1.387 18.036 0 14.262 0 8.789 0 4.055 3.137 1.75 7.713l4.677 3.627c1.101-3.31 4.188-5.772 7.834-5.772z" fill="#EA4335"/></svg><svg viewBox="0 0 20 20" id="heart" xmlns="http://www.w3.org/2000/svg"><path d="M9.563 4.478l.64.856.64-.855.002-.003.008-.01.031-.04a14.024 14.024 0 01.546-.664c.364-.414.746-.791 1.007-.946a4.303 4.303 0 012.108-.602 4.604 4.604 0 013.148 1.456A4.495 4.495 0 0118.9 6.906v.03c0 1.118-.461 2.347-1.242 3.61-.775 1.254-1.825 2.478-2.907 3.568a37.187 37.187 0 01-4.548 3.862 37.328 37.328 0 01-4.547-3.863c-1.083-1.09-2.133-2.313-2.908-3.568-.78-1.262-1.241-2.491-1.241-3.609v-.03A4.495 4.495 0 012.712 3.67a4.604 4.604 0 013.149-1.456c.743.016 1.47.223 2.107.602.261.155.644.532 1.007.945a13.973 13.973 0 01.546.664l.032.041.007.01.002.002z"/></svg><svg fill="none" viewBox="0 0 24 24" id="heart-grey" xmlns="http://www.w3.org/2000/svg"><path d="M20.84 4.61a5.5 5.5 0 00-7.78 0L12 5.67l-1.06-1.06a5.501 5.501 0 10-7.78 7.78l1.06 1.06L12 21.23l7.78-7.78 1.06-1.06a5.5 5.5 0 000-7.78v0z" stroke="#A39B9B" stroke-width="2" stroke-linecap="round" stroke-linejoin="round"/></svg><svg fill="none" viewBox="0 0 28 28" id="home" xmlns="http://www.w3.org/2000/svg"><path d="M2.6 23V12.5a.4.4 0 01.16-.32l-.359-.478.359.478 10.92-8.19a.533.533 0 01.64 0l10.92 8.19a.4.4 0 01.16.32V23a.4.4 0 01-.4.4H3a.4.4 0 01-.4-.4z"/></svg><svg fill="none" viewBox="0 0 24 24" id="inst" xmlns="http://www.w3.org/2000/svg"><g clip-path="url(#bca)"><path d="M12 7.5a4.5 4.5 0 100 9 4.5 4.5 0 000-9zm0 7.5a3 3 0 113-3 3.01 3.01 0 01-3 3zm4.125-12.375h-8.25a5.25 5.25 0 00-5.25 5.25v8.25a5.25 5.25 0 005.25 5.25h8.25a5.25 5.25 0 005.25-5.25v-8.25a5.25 5.25 0 00-5.25-5.25zm3.75 13.5a3.75 3.75 0 01-3.75 3.75h-8.25a3.75 3.75 0 01-3.75-3.75v-8.25a3.75 3.75 0 013.75-3.75h8.25a3.75 3.75 0 013.75 3.75v8.25zm-1.875-9a1.125 1.125 0 11-2.25 0 1.125 1.125 0 012.25 0z" fill="#000"/></g><defs><clipPath id="bca"><path fill="#fff" d="M0 0h24v24H0z"/></clipPath></defs></svg><svg fill="none" viewBox="0 0 18 18" id="like" xmlns="http://www.w3.org/2000/svg"><path d="M4.5 6H2.25A2.25 2.25 0 000 8.25v6a2.25 2.25 0 002.25 2.25H4.5V6zm6 .001l.416-2.496a1.702 1.702 0 00-.948-1.864 1.685 1.685 0 00-2.175.778L6 6v10.5h7.162a4 4 0 003.935-3.284l.87-4.783A2.064 2.064 0 0015.937 6H10.5z" fill="#F5B879"/></svg><svg fill="none" viewBox="0 0 143 16" id="long-arrow" xmlns="http://www.w3.org/2000/svg"><path d="M142.705 8.733a1 1 0 00.004-1.414L136.362.938a1 1 0 10-1.418 1.41l5.642 5.673-5.672 5.641a1 1 0 101.41 1.418l6.381-6.347zM.997 8.642l141 .382.006-2-141-.382-.006 2z" fill="#202223"/></svg><svg fill="none" viewBox="0 0 70 61" id="molecules" xmlns="http://www.w3.org/2000/svg"><path d="M59.623 19.445a9.673 9.673 0 01-6.878-2.846 9.66 9.66 0 01-2.847-6.878c0-2.6 1.011-5.038 2.847-6.878 3.793-3.789 9.959-3.793 13.752 0 3.793 3.793 3.793 9.963 0 13.752a9.66 9.66 0 01-6.878 2.847m0-17.318a7.575 7.575 0 00-5.371 2.222 7.548 7.548 0 00-2.226 5.371c0 2.03.791 3.937 2.226 5.371a7.547 7.547 0 005.371 2.226 7.547 7.547 0 005.371-2.226c2.96-2.96 2.96-7.782 0-10.742a7.575 7.575 0 00-5.371-2.222z" fill="#202223"/><path d="M36.702 44.717l-9.32-5.383v-11.36L51.98 13.1l1.101 1.82-23.567 14.256v8.933l8.252 4.766-1.064 1.843zM11.487 28.573H9.359v10.148h2.128V28.573z" fill="#202223"/><path d="M28.439 60.192l-9.853-5.69V43.128l9.853-5.69 9.853 5.69v11.374l-9.853 5.69zm-7.726-6.916l7.726 4.46 7.722-4.46v-8.918l-7.722-4.46-7.726 4.46v8.918zm-10.29-23.52L.57 24.066V12.693l9.853-5.69 9.853 5.69v11.375l-9.853 5.69zM2.698 22.84l7.725 4.46 7.722-4.46v-8.918l-7.722-4.459-7.725 4.46v8.917z" fill="#202223"/></svg><svg fill="none" viewBox="0 0 56 56" id="play" xmlns="http://www.w3.org/2000/svg"><circle cx="28" cy="28" r="28" fill="#fff"/><path d="M35.167 27.498a.722.722 0 010 1.252l-10.02 5.784a.722.722 0 01-1.083-.625v-11.57a.722.722 0 011.083-.625l10.02 5.785z" fill="#202223"/></svg><svg fill="none" viewBox="0 0 21 20" id="plus" xmlns="http://www.w3.org/2000/svg"><path d="M10.5 4.167v11.666M4.667 10h11.666" stroke="#fff" stroke-width="2" stroke-linecap="round" stroke-linejoin="round"/></svg><svg fill="none" viewBox="0 0 24 24" id="romb" xmlns="http://www.w3.org/2000/svg"><path d="M11.59 1.106a.437.437 0 01.82 0l.812 2.196a12.654 12.654 0 007.476 7.476l2.196.813c.38.14.38.678 0 .818l-2.196.813a12.654 12.654 0 00-7.476 7.476l-.813 2.196a.436.436 0 01-.818 0l-.813-2.196a12.654 12.654 0 00-7.476-7.476l-2.196-.813a.436.436 0 010-.818l2.196-.813a12.654 12.654 0 007.476-7.476l.813-2.196z" fill="#202223"/></svg><svg fill="none" viewBox="0 0 18 18" id="round-close" xmlns="http://www.w3.org/2000/svg"><path d="M14.917 3.084c-3.25-3.25-8.583-3.25-11.833 0s-3.25 8.583 0 11.833a8.299 8.299 0 0011.75 0c3.25-3.25 3.333-8.583.083-11.833zm-3.583 9.417l-2.333-2.334-2.334 2.334-1.166-1.167 2.333-2.333-2.333-2.334 1.166-1.166 2.334 2.333 2.333-2.333 1.167 1.166-2.334 2.334 2.334 2.333-1.167 1.167z" fill="#fff"/></svg><svg viewBox="0 0 20 20" id="search" xmlns="http://www.w3.org/2000/svg"><g clip-path="url(#bka)"><path fill-rule="evenodd" clip-rule="evenodd" d="M13.745 7.872A5.872 5.872 0 112 7.872a5.872 5.872 0 0111.745 0zm-1.184 6.325a7.872 7.872 0 111.443-1.386l5.425 5.286-1.396 1.432-5.473-5.332z"/></g><defs><clipPath id="bka"><path fill="#fff" d="M0 0h20v20H0z"/></clipPath></defs></svg><svg fill="none" viewBox="0 0 20 20" id="search-white" xmlns="http://www.w3.org/2000/svg"><circle cx="7.872" cy="7.872" r="6.872" stroke="#fff" stroke-width="2"/><path d="M11.5 13.164l1.396-1.432 6.533 6.365-1.396 1.432-6.533-6.365z" fill="#fff"/></svg><svg viewBox="0 0 20 20" id="shopping-bag" xmlns="http://www.w3.org/2000/svg"><g clip-path="url(#bma)"><path d="M15 5A5 5 0 005 5H0v12.5A2.5 2.5 0 002.5 20h15a2.5 2.5 0 002.5-2.5V5h-5zm-5-3.333A3.333 3.333 0 0113.333 5H6.667A3.333 3.333 0 0110 1.667zM18.333 17.5a.834.834 0 01-.833.833h-15a.834.834 0 01-.833-.833V6.667H5v1.666h1.667V6.667h6.666v1.666H15V6.667h3.333V17.5z"/></g><defs><clipPath id="bma"><path fill="#fff" d="M0 0h20v20H0z"/></clipPath></defs></svg><svg fill="none" viewBox="0 0 19 18" id="star" xmlns="http://www.w3.org/2000/svg"><path d="M8.587.103h2v17.794h-2V.103z" fill="#202223"/><path fill="#202223" d="M18.38 8.574v2H.589v-2z"/><path fill="#202223" d="M15.444 2.42l1.415 1.414L4.277 16.416 2.863 15z"/><path fill="#202223" d="M16.104 15.003l-1.414 1.414L2.11 3.835l1.414-1.414z"/></svg><svg fill="none" viewBox="0 0 16 15" id="star-black" xmlns="http://www.w3.org/2000/svg"><path d="M8 0l1.796 5.528h5.813l-4.703 3.416 1.796 5.528L8 11.056l-4.702 3.416 1.796-5.528L.392 5.528h5.812L8 0z" fill="#161517"/></svg><svg fill="none" viewBox="0 0 16 15" id="star-grey" xmlns="http://www.w3.org/2000/svg"><path d="M8 0l1.796 5.528h5.813l-4.703 3.416 1.796 5.528L8 11.056l-4.702 3.416 1.796-5.528L.392 5.528h5.812L8 0z" fill="#D9D9D9"/></svg><svg fill="none" viewBox="0 0 20 20" id="test" xmlns="http://www.w3.org/2000/svg"><path d="M12.041 8.665a.782.782 0 011.284.893l-2.89 4.204a1.25 1.25 0 01-1.915.175l-1.293-1.293a.793.793 0 011.117-1.126l.997.982 2.7-3.835zM16.666 2.5v13.333a2.5 2.5 0 01-2.5 2.5H5.833a2.5 2.5 0 01-2.5-2.5V2.5h4.742l.433-.833A1.667 1.667 0 0110 .833a1.666 1.666 0 011.466.834l.434.833h4.766zM15 4.167h-2.167l.46.842c.026.049.04.103.04.159a.665.665 0 01-.665.665H7.332a.665.665 0 01-.666-.665c0-.056.014-.11.04-.16l.46-.841H5v11.666a.833.833 0 00.833.833h8.333a.834.834 0 00.834-.833V4.167z" fill="#F5B879"/></svg><svg fill="none" viewBox="0 0 20 20" id="test-inactive" xmlns="http://www.w3.org/2000/svg"><path d="M12.042 8.665a.782.782 0 011.283.893l-2.89 4.204a1.25 1.25 0 01-1.914.175l-1.294-1.293a.793.793 0 011.117-1.126l.998.982 2.7-3.835zM16.667 2.5v13.333a2.5 2.5 0 01-2.5 2.5H5.833a2.5 2.5 0 01-2.5-2.5V2.5h4.742l.434-.833A1.667 1.667 0 0110 .833a1.666 1.666 0 011.467.834l.433.833h4.767zM15 4.167h-2.166l.459.842c.027.049.04.103.04.159a.665.665 0 01-.665.665H7.332a.665.665 0 01-.665-.665c0-.056.014-.11.04-.16l.46-.841H5v11.666a.833.833 0 00.833.833h8.334a.834.834 0 00.833-.833V4.167z" fill="#D9D9D9"/></svg><svg fill="none" viewBox="0 0 24 24" id="tg" xmlns="http://www.w3.org/2000/svg"><path d="M21.687 2.971a1.51 1.51 0 00-1.528-.253L2.852 9.515a1.481 1.481 0 00-.947 1.528 1.5 1.5 0 001.2 1.34l4.397.873v5.493a1.5 1.5 0 002.56 1.06l2.437-2.428 3.685 3.243a1.5 1.5 0 002.456-.787l3.525-15.394a1.5 1.5 0 00-.478-1.472zM8.074 11.84l-4.669-.928 13.088-5.147-8.419 6.075zm.928 6.91v-4.444l2.363 2.08-2.363 2.363zm8.175.75l-7.725-6.798L20.58 4.668l-3.403 14.831z" fill="#000"/></svg><svg fill="none" viewBox="0 0 24 24" id="trash" xmlns="http://www.w3.org/2000/svg"><path d="M3 6h18M8 6V4a2 2 0 012-2h4a2 2 0 012 2v2m3 0v14a2 2 0 01-2 2H7a2 2 0 01-2-2V6h14zm-9 5v6m4-6v6" stroke="#A39B9B" stroke-width="2" stroke-linecap="round" stroke-linejoin="round"/></svg><svg viewBox="0 0 20 20" id="user" xmlns="http://www.w3.org/2000/svg"><g clip-path="url(#bua)"><path d="M10 11a5 5 0 100-10 5 5 0 000 10zm0-8.333a3.333 3.333 0 110 6.666 3.333 3.333 0 010-6.666zm0 9.001a7.508 7.508 0 00-7.5 7.5.833.833 0 001.667 0 5.833 5.833 0 1111.666 0 .833.833 0 001.667 0 7.508 7.508 0 00-7.5-7.5z"/></g><defs><clipPath id="bua"><path fill="#fff" d="M0 0h20v20H0z"/></clipPath></defs></svg><svg fill="none" viewBox="0 0 20 20" id="verification" xmlns="http://www.w3.org/2000/svg"><path d="M8.856 3.17c.235-1.268 2.053-1.268 2.288 0a1.163 1.163 0 001.945.633c.935-.888 2.406.18 1.85 1.344a1.163 1.163 0 001.203 1.655c1.279-.169 1.84 1.56.706 2.176a1.163 1.163 0 000 2.044c1.134.616.573 2.345-.707 2.176a1.163 1.163 0 00-1.201 1.654c.555 1.165-.915 2.233-1.851 1.345a1.163 1.163 0 00-1.945.632c-.235 1.269-2.053 1.269-2.288 0a1.163 1.163 0 00-1.945-.632c-.935.888-2.406-.18-1.85-1.345a1.163 1.163 0 00-1.202-1.654c-1.28.169-1.841-1.56-.707-2.176a1.163 1.163 0 000-2.044c-1.134-.616-.573-2.345.707-2.176A1.164 1.164 0 005.06 5.147c-.555-1.164.916-2.232 1.851-1.344.67.635 1.777.275 1.945-.632z" fill="#ED7297"/><path d="M7.636 10.296l1.488 1.472c.163.162.43.15.578-.026l2.957-3.514" stroke="#fff" stroke-width="1.4" stroke-linecap="round" stroke-linejoin="round"/></svg><svg fill="none" viewBox="0 0 20 20" id="verification_inactive" xmlns="http://www.w3.org/2000/svg"><path d="M8.856 3.17c.235-1.268 2.053-1.268 2.288 0a1.163 1.163 0 001.945.633c.935-.888 2.406.18 1.85 1.344a1.163 1.163 0 001.203 1.655c1.279-.169 1.84 1.56.706 2.176a1.163 1.163 0 000 2.044c1.134.616.573 2.345-.707 2.176a1.163 1.163 0 00-1.201 1.654c.555 1.165-.915 2.233-1.851 1.345a1.163 1.163 0 00-1.945.632c-.235 1.269-2.053 1.269-2.288 0a1.163 1.163 0 00-1.945-.632c-.935.888-2.406-.18-1.85-1.345a1.163 1.163 0 00-1.202-1.654c-1.28.169-1.841-1.56-.707-2.176a1.163 1.163 0 000-2.044c-1.134-.616-.573-2.345.707-2.176A1.164 1.164 0 005.06 5.147c-.555-1.164.916-2.232 1.851-1.344.67.635 1.777.275 1.945-.632z" fill="#F1EEEE"/><path fill="#F1EEEE" d="M6.455 6.455h7.091v7.09h-7.09z"/><path d="M7.636 10.296l1.488 1.472c.163.162.43.15.578-.026l2.957-3.514" stroke="#fff" stroke-width="1.4" stroke-linecap="round" stroke-linejoin="round"/></svg><svg fill="none" viewBox="0 0 28 28" id="vk" xmlns="http://www.w3.org/2000/svg"><path d="M0 13.44C0 7.103 0 3.939 1.96 1.96 3.948 0 7.112 0 13.44 0h1.12c6.337 0 9.501 0 11.48 1.96C28 3.948 28 7.112 28 13.44v1.12c0 6.337 0 9.501-1.96 11.48C24.052 28 20.888 28 14.56 28h-1.12c-6.337 0-9.501 0-11.48-1.96C0 24.052 0 20.888 0 14.56v-1.12z" fill="#07F"/><path d="M14.896 20.17c-6.384 0-10.024-4.37-10.173-11.649h3.21c.103 5.338 2.455 7.597 4.322 8.063V8.522h3.014v4.6c1.839-.195 3.78-2.295 4.434-4.61h3.005a8.896 8.896 0 01-4.088 5.815 9.212 9.212 0 014.788 5.842h-3.313c-.71-2.212-2.483-3.929-4.826-4.162v4.162h-.373z" fill="#F1EEEE"/></svg><svg fill="none" viewBox="0 0 31 30" id="yandex" xmlns="http://www.w3.org/2000/svg"><path fill-rule="evenodd" clip-rule="evenodd" d="M15.5 30c8.284 0 15-6.716 15-15 0-8.284-6.716-15-15-15C7.216 0 .5 6.716.5 15c0 8.284 6.716 15 15 15zm1.875-7.031h2.813V6.562h-5.19a5.57 5.57 0 00-1.762.286l-.472.158a4.225 4.225 0 00-2.889 4.008v.47c0 1.912.924 3.707 2.48 4.818l.801.573-4.219 6.094h3.282l4.219-6.094-2.576-2.253a3.44 3.44 0 01-1.175-2.59v-.313A2.813 2.813 0 0115.5 8.906h1.875V22.97z" fill="#FC401D"/></svg><svg fill="none" viewBox="0 0 24 24" id="youtube" xmlns="http://www.w3.org/2000/svg"><g clip-path="url(#bza)"><path d="M15.412 11.373l-4.5-3a.778.778 0 00-.768-.037.75.75 0 00-.394.666v6a.75.75 0 00.394.665c.11.056.232.085.356.085a.788.788 0 00.412-.122l4.5-3a.75.75 0 000-1.257zm-4.162 2.232v-3.207l2.4 1.604-2.4 1.603zm10.716-7.06a2.202 2.202 0 00-1.36-1.528C17.4 3.78 12.281 3.79 12 3.79c-.281 0-5.4-.01-8.606 1.228a2.203 2.203 0 00-1.36 1.528c-.243.928-.534 2.635-.534 5.457 0 2.821.29 4.528.534 5.456a2.204 2.204 0 001.36 1.528c3.075 1.19 7.893 1.228 8.54 1.228h.132c.646 0 5.465-.037 8.54-1.228a2.203 2.203 0 001.36-1.528c.243-.928.534-2.635.534-5.456 0-2.822-.29-4.529-.534-5.457zm-1.454 10.538a.731.731 0 01-.44.506C17.1 18.733 12.056 18.714 12 18.714h-.01c-.046 0-5.09.019-8.062-1.125a.731.731 0 01-.44-.506C3.262 16.23 3 14.664 3 12.002c0-2.663.263-4.229.487-5.082a.731.731 0 01.441-.506c2.86-1.097 7.66-1.125 8.053-1.125H12c.056 0 5.1-.019 8.072 1.125a.732.732 0 01.44.506c.226.853.488 2.42.488 5.082s-.262 4.228-.488 5.08z" fill="#000"/></g><defs><clipPath id="bza"><path fill="#fff" d="M0 0h24v24H0z"/></clipPath></defs></svg></svg>