<svg width="188" height="194" fill="none" xmlns="http://www.w3.org/2000/svg"><rect width="188" height="194" rx="24" fill="#F5E7D8"/><g clip-path="url(#clip0_988_39548)"><path d="M71.114 60.539s2.57-4.858 8.764-2.516c0 0-.2-10.41 12.498-10.317 0 0 6.436.763 7.761 5.74 0 0 9.072-9.473 15.535.683l-9.473 27.498-21.825-5.834-6.021-4.764s-.963-8.175-7.252-10.463l.013-.027z" fill="#F5E7D8"/><path d="M76.6 93.924s-3.734-12.619 10.142-18.76c0 0 14.064-5.487 20.54 8.871 0 0 2.208 4.603.99 9.889H76.6z" fill="#FFD84D"/><path d="M30.329 53.433s5.874-.2 7.105 7.106c0 0-.254-5.58 7.105-7.106 0 0-6.37-.91-7.105-7.105 0 0-1.271 6.61-7.105 7.105z" fill="#fff"/><path d="M46.68 71.002s3.613-14.21 17.596-12.845c0 0 10.866 1.124 14.104 12.846L45.891 80.89l.803-9.889h-.013z" fill="#FFD84D"/><path d="M39.2 93.924s-5.005-5.968 0-12.364c0 0 2.877-5.259 10.37-3.345 0 0 .134-7.922 9.889-10.263 0 0 6.797-1.285 10.477 6.182 0 0 6.476-6.624 14.451 1.632 0 0-10.892 7.868-7.8 18.145H39.2v.013zm69.166-25.531s-1.378-7.76 5.874-13.595c0 0 6.798-4.59 13.89 2.141 0 0 9.286-13.287 24.607-6.463 0 0 10.357 7.48 4.362 15.964-3.372 4.777-9.206 8.202-9.206 8.202s11.829 11.066-2.636 19.295h-36.998s3.907-13.728-11.04-19.79c0 0-.28-5.446 11.134-5.754h.013z" fill="#C6CD67"/><path d="M31.667 93.924h128.617v2.475c0 28.662-23.269 51.932-51.931 51.932H83.625c-28.675 0-51.958-23.27-51.958-51.932v-2.475z" fill="#C1E6EF"/><path d="M31.667 93.924h128.617v2.475c0 28.662-23.269 51.932-51.931 51.932H83.625c-28.675 0-51.958-23.27-51.958-51.932v-2.475z" stroke="#202223" stroke-width="1.338" stroke-linecap="round" stroke-linejoin="round"/><path d="M84.4 75.78a9.875 9.875 0 00-8.282-4.483c-2.302 0-4.416.79-6.088 2.1-1.914-3.251-5.433-5.446-9.474-5.446-5.82 0-10.584 4.537-10.959 10.264a9.673 9.673 0 00-2.65-.375c-5.459 0-9.888 4.429-9.888 9.888 0 2.342.816 4.496 2.168 6.182" stroke="#202223" stroke-width="1.338"/><path d="M76.6 93.924a16.078 16.078 0 01-.402-3.613c0-8.938 7.24-16.177 16.178-16.177s16.177 7.239 16.177 16.177c0 1.245-.134 2.449-.401 3.613M46.76 77.854a16.076 16.076 0 01-.401-3.613c0-8.939 7.239-16.178 16.177-16.178 8.029 0 14.693 5.848 15.964 13.515M44.54 53.433c-4.604 1.379-5.728 2.49-7.106 7.106-1.378-4.603-2.489-5.727-7.105-7.106 4.603-1.378 5.727-2.489 7.105-7.105 1.378 4.603 2.489 5.727 7.105 7.105z" stroke="#202223" stroke-width="1.338"/><path d="M108.139 93.937h32.663c6.516 0 11.641-3.372 11.641-9.902a11.76 11.76 0 00-4.67-9.393c10.317-4.91 15.562-16.579 5.941-23.443-10.691-7.64-22.118.495-25.718 5.74a11.755 11.755 0 00-8.39-3.506c-6.516 0-11.815 5.286-11.815 11.816 0 1.083.161 2.14.442 3.144-10.143-.428-12.27 6.155-12.27 6.155" stroke="#202223" stroke-width="1.338"/><path d="M110.28 93.83l31.726-30.816m-21.798 5.553v15.469h15.789" stroke="#202223" stroke-width="1.338" stroke-linecap="round" stroke-linejoin="round"/><path d="M71.114 60.539s3.211-4.804 8.764-2.516c0 0-1.017-8.59 9.862-10.357 5.433-.883 8.59 2.329 10.397 5.767 0 0 7.6-9.487 15.789.59" stroke="#202223" stroke-width="1.338"/></g><defs><clipPath id="clip0_988_39548"><path fill="#fff" transform="translate(28 44)" d="M0 0h132.953v105H0z"/></clipPath></defs></svg>