<svg width="624" height="459" fill="none" xmlns="http://www.w3.org/2000/svg"><rect x="-.357" y=".357" width="279.088" height="137.403" rx="13.919" transform="matrix(-1 0 0 1 597.581 19.848)" fill="#FBECE8" stroke="#000" stroke-width=".714"/><rect x="-.357" y=".357" width="279.088" height="136.332" rx="13.919" transform="matrix(-1 0 0 1 608.286 7)" fill="#fff" stroke="#000" stroke-width=".714"/><rect width="125.269" height="101.357" rx="9.279" transform="matrix(-1 0 0 1 593.297 24.487)" fill="#EADFF9"/><path d="M447.863 29.484h-97.074m97.074 22.841h-97.074m97.074 22.841h-97.074m97.074 22.842h-97.074m97.074 22.841h-97.074" stroke="#000" stroke-width=".714"/><path d="M376.014 133.278s4.752-2.347-1.406-13.866l-3.709 4.897 5.115 8.969z" fill="#020202"/><path d="M376.014 133.669s.116 0 .174-.043c.043-.029 1.115-.565 1.652-2.261.623-1.927.623-5.592-2.884-12.142a.372.372 0 00-.319-.202c-.13 0-.26.043-.347.159l-3.71 4.897a.4.4 0 00-.029.435l5.115 8.969c.073.13.203.203.348.203v-.015zm-1.463-13.533c3.057 5.912 3.086 9.201 2.55 10.925-.276.869-.681 1.362-.971 1.623l-4.767-8.36 3.173-4.188h.015z" fill="#000"/><path d="M358.019 101.561l9.418-5.868 23.98-17.518 5.52-16.112.841-7.68s-.073-2.593 1.463-2.607c1.536-.015 2.304 3.825 2.304 3.825l10.374-12.635s2.579-1.869 2.391 2.203c0 0-1.188 2.376-5.912 9.766l-1.072 1.666s3.521-2.319 4.159 1.985c0 0 4.201-1.26 4.23 2.492 0 0 4.159-1.478 4.144 3.898 0 0-.724 9.33-3.202 9.113 0 0-1.623-.144-1.55-2.332 0 0-5.318 14.808-13.243 12.229l-30.978 40.294-12.881-22.704.014-.015z" fill="#fff"/><path d="M155.559 92.419c15.055-3.87 21.155-2.942 21.155-2.942l33.586 1.695 45.323 2.29s21.719.739 34.745 8.809c.724.449 1.608.928 2.608 1.42 1.84.899 4.608 1.638 7.621 2.594 24.14 7.708 36.108 7.346 57.378-4.724l17.996 31.717c-14.374 7.187-21.082 9.549-31.79 11.201-32.688 5.013-60.855-4.912-67.708-8.274 1.753 4.535 3.97 16.431-2.666 20.561 0 0-3.449 3.028-9.592 3.115l-7.911 20.966-46.67-21.053.507-30.848-18.923-4.419-18.75-4.912-14.837 22.763-31.267-15.475s12.953-30.326 29.138-34.47l.057-.014z" fill="#F7D2DC"/><path d="M326.084 146.145c5.825 0 11.911-.405 18.185-1.362 11.098-1.695 17.358-3.897 31.891-11.229.072-.043.144-.116.159-.203a.334.334 0 00-.029-.261l-17.996-31.717a.316.316 0 00-.449-.116.317.317 0 00-.116.45l17.822 31.412c-14.243 7.173-20.444 9.346-31.384 11.012-39.512 6.013-72.113-10.012-72.446-10.171-.16-.087-.348-.015-.435.145a.316.316 0 00.145.434c.275.145 23.574 11.592 54.653 11.592v.014zm70.839-83.734c.174 0 .319-.13.348-.29.377-2.579.638-5.404.826-7.476l.087-.928c.087-.898.435-1.55.84-1.608.392-.058 1.087.493 1.71 2.217l.188.521c.131.334.218.58.29.855.058.189.246.29.42.247a.354.354 0 00.247-.42c-.073-.29-.174-.551-.305-.913l-.188-.522c-.898-2.478-1.913-2.738-2.449-2.666-.768.102-1.333.956-1.449 2.231l-.087.928c-.188 2.057-.434 4.883-.811 7.433a.344.344 0 00.29.391h.058-.015zm10.707 2.507a.334.334 0 00.29-.16l3.869-5.983a.321.321 0 00.043-.261c-.275-1.406-.855-2.319-1.71-2.695-1.26-.565-2.608.217-2.666.246a.35.35 0 00-.116.478c.102.16.305.218.479.13 0 0 1.115-.637 2.028-.217.623.275 1.058.971 1.29 2.072l-3.782 5.868a.348.348 0 00.101.478.292.292 0 00.189.059l-.015-.015z" fill="#000"/><path d="M412.051 66.802a.38.38 0 00.29-.145l3.666-5.375s.057-.13.057-.189c0-1.072-.333-1.869-1.014-2.376-1.362-1.043-3.55-.464-3.651-.435-.188.044-.29.247-.246.42.043.174.246.29.42.247.014 0 1.97-.507 3.057.319.464.362.724.941.739 1.724l-3.608 5.288c-.101.16-.072.377.087.478.058.044.13.058.188.058l.015-.014z" fill="#000"/><path d="M416.73 74.437h.203c.449-.043.869-.333 1.275-.884 1.521-2.115 2.463-7.708 1.782-10.504-.247-1.03-.739-1.754-1.449-2.13-.768-.42-1.753-.42-2.927 0a.352.352 0 00-.217.434c.058.174.26.276.434.218.986-.348 1.782-.348 2.377-.03.536.29.898.856 1.101 1.696.637 2.593-.276 7.984-1.667 9.94-.275.376-.536.58-.767.608-1.058.073-1.449-.826-1.594-1.594-.029-.188-.218-.304-.406-.275-.188.029-.304.217-.275.406.261 1.39 1.043 2.159 2.13 2.159v-.044z" fill="#000"/><path d="M370.899 124.599a.33.33 0 00.261-.13l30.848-40.106c1.579.507 3.158.362 4.709-.435 6.288-3.188 10.113-15.793 10.272-16.33.058-.174-.043-.347-.217-.405-.174-.044-.362.043-.406.217-.043.13-3.897 12.867-9.939 15.938-1.464.74-2.956.855-4.434.32a.34.34 0 00-.362.1l-30.978 40.295a.308.308 0 00.058.449c.058.044.13.073.203.073l-.015.014zm-244.65 2.68s-1.942 4.767 10.172 9.969l1.927-4.072-12.099-5.882v-.015z" fill="#000"/><path d="M136.435 137.639a.414.414 0 00.362-.231l1.927-4.072a.4.4 0 00-.188-.522l-12.099-5.882c-.101-.044-.217-.058-.319 0a.429.429 0 00-.232.217c-.086.203-1.956 5.187 10.389 10.476a.314.314 0 00.16.029v-.015zm1.391-4.288l-1.594 3.376c-9.099-3.985-9.766-7.636-9.694-8.868l11.273 5.492h.015z" fill="#000"/><path d="M94.65 139.188l77.569 30.243-17.132 43.941-77.569-30.243 17.132-43.941z" fill="#FDE8B1"/><path d="M155.096 213.723c.16 0 .305-.087.363-.247L172.6 169.53a.405.405 0 000-.289.338.338 0 00-.218-.203l-77.576-30.254c-.202-.072-.42.015-.492.217l-17.141 43.946a.4.4 0 000 .29.338.338 0 00.217.203l77.576 30.254s.087.029.145.029h-.015zm16.634-44.106l-16.851 43.222-76.851-29.964 16.85-43.222 76.852 29.964z" fill="#000"/><path d="M152.214 175.883l4.847 1.889-7.485 19.197-4.846-1.89 7.484-19.196z" fill="#fff"/><path d="M149.576 197.292s.102 0 .145-.029a.397.397 0 00.188-.189l7.491-19.198a.336.336 0 00-.203-.449l-4.839-1.884a.445.445 0 00-.275 0 .403.403 0 00-.189.189l-7.491 19.198a.338.338 0 00.203.449l4.84 1.884s.087.029.13.029zm7.027-19.344l-7.23 18.547-4.187-1.638 7.23-18.546 4.187 1.637z" fill="#202223"/><path d="M137.549 132.598l-15.547 53.523s-7.447 8.389-2.173 17.141c0 0-2.854 4.492-1.623 7.172 0 0 1.232 1.348 2.768.261 0 0-.594 2.637 1.043 2.883 1.637.247 1.956-.405 1.956-.405s-.145 2.39 1.449 3.129c0 0 1.13.594 2.188-.116 0 0 .608 3.101 2.753 3.072 2.144-.014 3.347-3.304 3.347-3.304l4.665-10.041s1.029-3.144-.174-6.36c-1.202-3.217-2.158-8.419-2.158-8.419l21.299-48.597-19.778-9.954-.015.015z" fill="#fff"/><path d="M130.277 219.605c.13 0 .26 0 .405-.029 1.116-.159 2.159-.971 2.695-2.115l4.869-10.302c.971-2.058 1.217-4.26.71-6.216l-2.492-9.447c-.044-.189-.232-.29-.421-.246-.188.043-.289.231-.246.42l2.492 9.447c.478 1.796.232 3.839-.666 5.738l-4.869 10.301c-.434.928-1.275 1.594-2.173 1.725-.623.087-1.188-.102-1.579-.536-.725-.797-.783-.913-1.333-1.942l-.145-.275a.355.355 0 00-.435-.16s-1 .391-1.768-.116c-.637-.42-.97-1.318-1.014-2.695a.34.34 0 00-.507-.289s-1.608.84-2.318.072c-.812-.869-.203-2.072-.203-2.086a.355.355 0 00-.102-.435.334.334 0 00-.449.043c-.087.087-.869.812-2.014.015-.014 0-1.84-1.362 1.435-7.027a.4.4 0 000-.363c-.218-.318-5.159-8.07 2.159-16.735a.361.361 0 00-.044-.492.361.361 0 00-.493.043c-7.012 8.317-3.057 16.083-2.318 17.373-3.376 5.955-1.362 7.607-1.13 7.766.797.551 1.536.565 2.086.391-.086.565-.029 1.319.58 1.985.768.826 2 .536 2.681.275.115 1.348.55 2.275 1.304 2.753.768.508 1.651.377 2.101.261.565 1.087.652 1.246 1.434 2.101a2.402 2.402 0 001.797.783l-.029.014z" fill="#000"/><path d="M119.684 203.768a.333.333 0 00.246-.116l1.333-1.434a.345.345 0 00-.014-.493.347.347 0 00-.493.014l-1.333 1.435a.346.346 0 00.015.493.353.353 0 00.231.086l.015.015zm7.535 12.882h.043c.072 0 1.797-.246 3.419-3.362a625.317 625.317 0 013.811-7.201l-.608-.333s-2.246 4.202-3.811 7.201c-1.435 2.753-2.869 2.999-2.883 2.999a.344.344 0 00-.29.392.358.358 0 00.348.304h-.029zm-3.361-3.13s.072 0 .116-.015c.217-.072 2.173-.927 5.172-8.433a.346.346 0 00-.188-.449.347.347 0 00-.449.189c-2.884 7.186-4.753 8.027-4.767 8.041a.368.368 0 00-.203.449c.058.145.174.232.319.232v-.014zm-3.085-2.101a.354.354 0 00.304-.188l3.709-6.984a.338.338 0 00-.145-.464.337.337 0 00-.463.145l-3.71 6.984c-.087.174-.029.377.145.463a.333.333 0 00.16.044zm13.851-8.911a.341.341 0 00.333-.261c.043-.189-.058-.377-.246-.42l-12.621-3.449c-.188-.043-.376.058-.42.246-.043.189.058.377.246.421l12.621 3.448h.087v.015z" fill="#000"/><path d="M131.536 214.244s.116 0 .174-.044a.338.338 0 00.131-.478l-.826-1.449a.367.367 0 00-.478-.13.338.338 0 00-.131.478l.826 1.449c.058.116.174.174.304.174zm-9.519-27.775c.145 0 .29-.102.333-.247l15.547-53.523a.354.354 0 00-.232-.435.353.353 0 00-.434.232l-15.547 53.523a.354.354 0 00.231.435h.102v.015zm14.012 5.027c.13 0 .26-.073.318-.203l21.531-48.496a.34.34 0 00-.623-.275l-21.531 48.496a.34.34 0 00.174.449c.044.014.087.029.145.029h-.014z" fill="#000"/><path d="M128.771 162.992l4.87 2.311-.236.497-4.87-2.311.236-.497zm2.68 7.597l.246-.522-4.375-2.072-.247.522 4.376 2.072zm9.249-2.045l4.542 2.156-.236.498-4.542-2.156.236-.498zm2.124 7.348l.246-.522-4.912-2.333-.246.522 4.912 2.333z" fill="#000"/><path d="M136.029 174.226c.565 0 1.13-.102 1.666-.305a4.85 4.85 0 002.738-2.506c1.131-2.42.073-5.318-2.347-6.434a4.782 4.782 0 00-3.709-.159 4.848 4.848 0 00-2.738 2.507c-1.131 2.419-.073 5.317 2.347 6.433a4.818 4.818 0 002.043.449v.015zm0-9.129c.608 0 1.231.131 1.796.406a4.293 4.293 0 012.072 5.68 4.255 4.255 0 01-2.405 2.217 4.243 4.243 0 01-3.26-.145 4.294 4.294 0 01-2.072-5.68 4.27 4.27 0 013.869-2.478z" fill="#000"/><path d="M209.678 159.779s-28.588 17.054-40.15 55.103l-14.432 49.554-93.253-37.267-18.59 45.178 110.728 41.222s22.646 6.549 34.673-18.01l16.517-33.616-.304 57.74-114.48 52.205 21.995 41.164 114.292-53.567s23.863-9.693 26.24-38.483l3.607-52.321-.188-87.849-46.67-21.053h.015z" fill="#fff"/><path d="M7.652 282.447s-2.739.333-2.464-2.449l12.824-30.138 11.808-9.316-6.274-3.695 4.985-11.707s10.881 2.738 12.403 3.781c0 0-15.04 34.05-33.268 53.524h-.014z" fill="#A599C6"/><path d="M54.932 243.354c.435-8.65-14.518-14.649-14.518-14.649l-5.318 10.635a9.346 9.346 0 01-2.941 3.434l-8.216 5.868a11.995 11.995 0 00-4.245 5.535L7.465 282.91s4.651 3.723 13.446-2.435c8.795-6.143 25.82-18.053 25.82-18.053l8.201-19.068z" fill="#BCB0D6"/><path d="M11.623 284.243c2.579 0 5.81-.811 9.534-3.42 10.07-7.027 25.82-18.053 25.82-18.053l-.493-.696s-15.75 11.027-25.82 18.054c-6.592 4.608-11.475 3.333-13.808 2.159-1.014-.507-1.449-1.739-1-2.811l12.49-29.355 12.214-9.636-6.49-3.825 4.694-11.041c2.825.551 22.762 4.883 26.225 16.475l.812-.247c-3.869-12.924-26.284-16.967-27.226-17.141l-.333-.058-5.26 12.36 6.072 3.564-11.447 9.099-12.533 29.457c-.623 1.478-.015 3.202 1.39 3.912a11.42 11.42 0 005.13 1.188l.029.015z" fill="#000"/><path d="M22.256 272.022l3.2 5.33-.734.44-3.2-5.33.734-.44zm-14.4 11.047l11.65-27.385a15.157 15.157 0 014.94-6.259l7.593-5.608a16.068 16.068 0 005.216-6.607l3.55-8.345-.783-.334-3.55 8.346a15.158 15.158 0 01-4.94 6.259l-7.593 5.608a15.95 15.95 0 00-5.216 6.607l-11.65 27.385.783.333z" fill="#000"/><path d="M98.095 447.45s-1.507 2.304-3.463.305L79.838 418.53l.493-15.04-6.868 2.419-5.738-11.345s9.1-6.549 10.882-7.042c0 0 16.358 33.442 19.502 59.928h-.014z" fill="#A599C6"/><path d="M98.66 386.102c-6.346-5.911-20.56 1.666-20.56 1.666l4.71 10.925a9.437 9.437 0 01.738 4.463l-.811 10.07a12.013 12.013 0 001.492 6.81l14.099 27.863s5.839-1.159 6.809-11.852c.971-10.693 2.826-31.37 2.826-31.37l-9.302-18.56v-.015z" fill="#BCB0D6"/><path d="M96.647 448.986c.39 0 .782-.072 1.159-.232 2.564-1.101 6.983-4.202 7.751-12.663 1.116-12.229 2.826-31.37 2.826-31.37l-.855-.072s-1.71 19.14-2.825 31.369c-.725 8.013-4.854 10.925-7.245 11.954-1.043.449-2.26-.015-2.782-1.043l-14.402-28.472.507-15.547-7.115 2.507-5.418-10.708c2.245-1.796 18.4-14.257 29.5-9.447l.333-.782c-12.374-5.376-29.906 9.157-30.645 9.78l-.26.217 6.056 11.983 6.636-2.333-.464 14.519 14.504 28.659a3.075 3.075 0 002.724 1.696l.014-.015z" fill="#000"/><path d="M99.521 429.575l6.137.988-.136.844-6.137-.988.136-.844zm-1.571 18.512l.769-.391-13.432-26.559a15.328 15.328 0 01-1.608-7.809l.594-9.418a15.904 15.904 0 00-1.695-8.245l-4.1-8.085-.769.391 4.1 8.085a15.363 15.363 0 011.61 7.81l-.595 9.418a16.053 16.053 0 001.695 8.245l13.432 26.558z" fill="#000"/><path d="M274.98 88.942l-.695 7.635-16.344-3.13-1.55-11.258 18.589 6.753z" fill="#fff"/><path d="M274.039 96.968s-10.157-8.317-15.634-7.68l1.724 5.159 13.91 2.521z" fill="#F7D2DC"/><path d="M274.43 92.505s-5.346-2.622-8.954-6.52c0 0 3.753 1.797 9.012 3.144l-.058 3.362v.014zm-18.082 88.675s.087 0 .13-.029c.087-.043.16-.101.189-.203l7.824-20.748c5.376-.261 9.317-2.101 11.722-5.477 4.926-6.955 1.652-17.837 1.507-18.3a.343.343 0 00-.435-.232.342.342 0 00-.232.434c.029.116 3.318 11.027-1.42 17.706-2.303 3.246-6.143 4.999-11.403 5.202a.313.313 0 00-.304.217l-7.781 20.619-46.119-20.807.637-38.73a.34.34 0 10-.681-.014l-.652 38.947c0 .145.073.261.203.319l46.67 21.053s.087.029.145.029v.014zM109.976 393.057s.102 0 .16-.029l107.539-46.265c9.143-3.926 15.996-11.968 18.358-21.516 10.563-42.758 8.505-137.127 8.476-138.069 0-.217-.173-.376-.405-.391a.401.401 0 00-.391.406c.029.942 2.072 95.209-8.448 137.866-2.304 9.302-8.983 17.155-17.894 20.98l-107.54 46.264a.394.394 0 00-.202.522.41.41 0 00.362.246l-.015-.014z" fill="#000"/><path d="M112.397 413.458s.116 0 .173-.043l112.553-52.712c15.649-7.332 26.443-22.517 28.197-39.657 7.157-69.969 3.462-139.532 3.434-140.228a.378.378 0 00-.421-.377c-.217 0-.391.203-.376.421.043.695 3.723 70.2-3.42 140.111-1.724 16.866-12.359 31.819-27.747 39.02l-112.22 52.553-21.632-40.455 114.103-52.031a.381.381 0 00.232-.362l.478-91.369a.382.382 0 00-.232-.363l-2.057-.927c-6.665-3.014-12.519-7.288-17.402-12.736a.407.407 0 00-.565-.029.407.407 0 00-.029.565 52.844 52.844 0 0017.663 12.939l1.825.826-.478 90.862L90.213 371.57a.423.423 0 00-.217.232.356.356 0 00.03.318l21.994 41.165a.39.39 0 00.348.202l.029-.029z" fill="#000"/><path d="M160.936 314.815a29.822 29.822 0 0026.762-16.662l17.836-36.021a.401.401 0 00-.174-.536c-.188-.101-.434-.014-.536.174l-17.836 36.02a29.051 29.051 0 01-36.325 14.359L43.79 272.13l18.286-44.439 92.891 37.107a.44.44 0 00.333-.014.412.412 0 00.203-.261c.13-.58 13.591-58.377 27.935-78.315 14.33-19.922 26.313-26.008 26.429-26.08a.391.391 0 00.173-.537.39.39 0 00-.536-.173c-.116.058-12.272 6.244-26.718 26.327-13.765 19.126-26.66 72.678-27.95 78.155l-92.818-37.093a.379.379 0 00-.507.218l-18.59 45.177a.372.372 0 000 .305.402.402 0 00.217.217l107.264 40.164a29.996 29.996 0 0010.549 1.927h-.015zm-3.246-172.104a.354.354 0 00.29-.159l14.706-22.545c2.652.724 26.023 7.027 37.441 9.273.188.043.362-.087.405-.276.044-.188-.087-.362-.275-.405-12.026-2.362-37.382-9.259-37.643-9.331a.323.323 0 00-.377.145l-14.677 22.501-30.703-15.184c11.055-25.429 24.458-32.225 24.603-32.283 24.501-10.084 79.053-2.028 79.604-1.941a.344.344 0 10.101-.681c-.55-.087-55.291-8.172-79.981 2-.159.072-13.881 6.998-25.081 32.948a.352.352 0 00.16.449l31.268 15.475s.101.029.159.029v-.015zm86.602 68.737a.35.35 0 00.261-.102l12.736-11.49a.407.407 0 00.029-.565.407.407 0 00-.565-.029l-12.736 11.49a.406.406 0 00-.029.565.385.385 0 00.289.131h.015zM119.004 410.705s.116 0 .174-.043a.403.403 0 00.174-.536l-21.343-41.715c-.102-.188-.348-.275-.536-.174a.402.402 0 00-.174.536l21.343 41.715c.072.13.203.217.347.217h.015z" fill="#000"/><path d="M52.44 276.157a.42.42 0 00.377-.26l16.996-45.178a.397.397 0 00-.232-.507.397.397 0 00-.507.232l-16.996 45.177a.397.397 0 00.231.507.417.417 0 00.145.029h-.014zM225.499 36.896a.357.357 0 00.29-.145.348.348 0 00-.073-.493L210.981 25.45a.35.35 0 00-.493.073.348.348 0 00.073.493l14.735 10.809s.131.072.203.072zm-9.128 14.374a.358.358 0 00.348-.305.344.344 0 00-.305-.391l-17.401-2.434a.344.344 0 00-.392.304.344.344 0 00.305.391l17.401 2.434h.044z" fill="#000"/><path d="M254.189 70.627l-1.159-9.578c8.042-4.911 8.288-14.43 8.592-18.401.246-3.1 1.666-5.607 2.391-6.665a13.215 13.215 0 016.201-1c4.289.319 8.056 3.014 10.128 6.781.971 1.768 1.913 3.666 2.029 4.666 0 0 11.388 21.444 3.999 36.107 0 0-2.739 6.491-8.245 6.433-6.114-.058-15.387-2.52-20.719-5.897l-1.145-3.057s-7.998 1.333-10.027-4.622c-2.028-5.955 2.884-7.448 7.941-4.724l.014-.043z" fill="#fff"/><path d="M276.965 33.158s8.78 3.738 13.953 12.649c5.173 8.925 3.738 17.04 2.767 22.125-.97 5.086 3.174 17.923 6.81 22.676 3.637 4.752 1.681 11.823-4.419 14.272 0 0-4.26-1.406-11.301-5.361-.232-.13-2.667-1.16-2.913-1.232l-7.563-2.173.188-6.999-17.749-5.36s1.057 3.404 2.159 7.722c1.912 7.535-4.767 14.446-12.36 12.809l-7.853-1.696c-6.158-1.333-9.896-7.737-7.824-13.677.029-.087.058-.16.087-.247 2.941-8.172 3.868-8.505 2.84-15.242-1.029-6.738-4.144-17.214.608-25.806 4.738-8.578 10.346-12.475 20.343-15.156 0 0 3.188-9.824 11.244-11.012 8.056-1.188 11.867 3.565 10.983 11.693v.015z" fill="#fff"/><path d="M246.553 76.003a6.369 6.369 0 01-.305-.638c.102.232.203.435.305.638z" fill="#000" opacity=".35"/><path d="M269.084 73.25c2.391.043 1.913-.435 5.564-.957s4.332 1.174 4.332 1.174.319 4.173-3.694 4.202c-4.014.029-6.216-4.434-6.216-4.434l.014.014z" fill="#F7C077"/><path d="M275.255 78.074h.044c1.26 0 2.26-.406 2.97-1.174 1.246-1.362 1.116-3.361 1.101-3.448l-.029-.116c-.029-.087-.84-1.97-4.752-1.42-1.71.246-2.536.478-3.144.652-.696.203-1.116.319-2.348.29h-.652l.29.565c.101.188 2.347 4.651 6.52 4.651zm3.347-4.492c0 .348 0 1.812-.898 2.782-.551.609-1.362.913-2.405.928h-.044c-2.854 0-4.767-2.493-5.491-3.652.855-.029 1.289-.145 1.898-.318.623-.174 1.391-.406 3.043-.638 2.912-.406 3.738.652 3.883.898h.014z" fill="#000"/><path d="M275.894 89.535c1.232 0 2.478-.16 3.68-.522 3.651-1.115 6.375-3.94 8.114-8.432 4.448-11.548-1.362-26.56-4.057-32.47a52.314 52.314 0 01-1.376-3.348c-1.522-3.97-4.506-7.187-8.201-8.91-3.738-1.74-7.085-1.885-9.969-.465-.188.102-.275.334-.174.522a.379.379 0 00.522.174c2.651-1.319 5.767-1.16 9.288.464 3.506 1.637 6.346 4.694 7.766 8.403.377 1 .855 2.232 1.42 3.463 2.666 5.825 8.389 20.59 4.042 31.848-1.637 4.245-4.202 6.926-7.607 7.969-5.737 1.739-12.446-1.695-14.547-3.173a.397.397 0 00-.55.101.385.385 0 00.101.55c2.159 1.508 6.81 3.811 11.548 3.811v.015z" fill="#000"/><path d="M276.344 56.021h.029a.391.391 0 00.362-.42c-.015-.246-.391-6.129 6.622-6.81.072 0 2.752.044 3.897-1.115.362-.377.551-.826.536-1.334a.378.378 0 00-.391-.376.382.382 0 00-.377.405c0 .29-.087.537-.304.754-.753.753-2.695.898-3.361.884-7.839.768-7.39 7.592-7.376 7.665a.395.395 0 00.392.362l-.029-.015zm-.754-8.824a.319.319 0 00.289-.174c.073-.13 1.913-3.361 6.1-1.318.16.087.363 0 .449-.16.087-.174.001-.362-.159-.449-4.781-2.333-6.969 1.565-6.998 1.608a.332.332 0 00.29.493h.029zm3.158 19.155a.404.404 0 00.318-.159c1.044-1.406 1.391-2.492 1.102-3.39-.29-.884-1.174-1.536-2.695-2.014-2.493-.769-3.927-5.29-3.927-5.333a.397.397 0 00-.493-.26c-.203.058-.319.29-.261.492.058.203 1.565 4.956 4.449 5.854 1.246.391 1.985.898 2.188 1.507.202.637-.116 1.507-.986 2.68a.395.395 0 00.087.55c.073.059.16.073.232.073h-.014zm-19.022-7.994c-.584-2.005.193-3.996 1.737-4.446 1.544-.45 3.27.81 3.855 2.815s-.193 3.995-1.737 4.446c-1.544.45-3.27-.81-3.855-2.815z" fill="#000"/><path d="M276.939 54.079c-.49-1.682.164-3.353 1.463-3.732 1.298-.379 2.748.678 3.239 2.36.491 1.683-.164 3.354-1.462 3.733-1.299.378-2.749-.679-3.24-2.361zm19.543 50.887s.13-.014.188-.058l2.13-1.391c.087-.043 2.536-1.42 3.42-4.578.753-2.695.13-5.825-1.855-9.302a47.58 47.58 0 01-.782-1.42c-4.347-8.36-6.723-15.185-5.144-23.27 1.608-8.216-.015-15.359-4.955-21.821-6.274-8.216-12.171-10.215-12.418-10.302a.345.345 0 00-.434.217.352.352 0 00.217.435c.058.014 5.941 2.043 12.084 10.056 4.81 6.302 6.39 13.257 4.825 21.27-1.623 8.288.797 15.228 5.216 23.719.246.478.522.97.797 1.449 1.884 3.289 2.492 6.245 1.782 8.751-.797 2.884-3.086 4.173-3.115 4.188l-2.144 1.405a.348.348 0 00-.102.478c.073.102.174.16.29.16v.014z" fill="#000"/><path d="M294.818 102.605s.101 0 .159-.043c.073-.044 1.956-1.116 2.536-3.507.507-2.086-.116-4.477-1.869-7.129a.326.326 0 00-.449-.087.325.325 0 00-.087.45c1.637 2.477 2.246 4.709 1.782 6.607-.507 2.115-2.202 3.1-2.231 3.1a.333.333 0 00-.131.45.348.348 0 00.29.173v-.014zm-20.388-27.66c1.883 0 4.086-.406 6.607-1.55a.393.393 0 00.203-.522.393.393 0 00-.522-.203c-8.49 3.84-13.156-.97-13.199-1.014a.39.39 0 00-.566.536c.029.043 2.666 2.753 7.491 2.753h-.014zm-.145 21.98a.34.34 0 00.348-.333l.203-7.448a.363.363 0 00-.333-.362.364.364 0 00-.363.334l-.202 7.447c0 .188.145.348.333.362h.014z" fill="#000"/><path d="M256.97 32.288c-17.851 2.145-22.371 13.186-30.876 32.934-8.766 20.372-17.127 1.42-35.166 6.1-18.054 4.68-23.733 22.053-14.866 32.949 8.867 10.896 24.922 1.174 23.907 16.098-1.014 14.924 5.405 26.298 19.575 26.283 14.171 0 12.476-21.27 20.285-12.591 7.81 8.679 18.242 5.854 18.242 5.854 11.911-5.39 11.201-17.837 9.52-25.299-1.782-7.882-5.854-15.778-9.534-26.544 0 0-1.261-6.042-1.782-8.128 0 0-6.477.782-9.114-3.043-2.637-3.825-1.826-10.259 7.027-6.303l-1.159-9.578s5.883-4.332 7.737-12.938c0 0 1.145-8.55 2.362-10.621 1.217-2.072-2.782-5.607-6.143-5.216l-.015.043z" fill="#fff"/><path d="M264.331 35.78a.358.358 0 00.276-.13c3.419-4.289 5.911-4.23 9.084-2.68.174.086.377 0 .464-.16.087-.174 0-.377-.159-.464-3.405-1.666-6.245-1.767-9.925 2.87a.35.35 0 00.057.492.392.392 0 00.218.072h-.015zm-45.366 111.423c5.984 0 10.809-3.608 13.707-10.505 1.13-2.68 2.434-4.158 3.781-4.289 1.725-.174 3.058 1.826 3.072 1.855.102.116 7.766 9.317 19.416 5.622 3.738-1.188 6.578-3.84 8.215-7.651 3.478-8.157 1.464-20.98-5.535-35.194-.029-.072-3.955-8.983-5.013-17.112-.029-.188-.203-.333-.391-.304a.366.366 0 00-.305.391c1.058 8.23 5.028 17.228 5.072 17.315 6.911 14.04 8.911 26.646 5.52 34.629-1.565 3.68-4.187 6.129-7.781 7.274-11.2 3.564-18.575-5.274-18.647-5.376-.044-.072-1.594-2.333-3.681-2.13-1.637.16-3.1 1.739-4.361 4.709-2.275 5.376-7.911 13.635-20.212 8.506-9.534-3.971-12.2-14.924-11.592-23.096.565-7.607-.869-10.23-10.91-11.737-9.795-1.463-13.113-4.839-15.533-10.171-2.579-5.665-3.26-17.46 10.49-25.675 10.389-6.216 20.358-2.58 26.327-.406 2.159.782 3.869 1.42 4.985 1.348 4.303-.247 8.375-1.812 14.648-18.634 6.216-16.648 15.823-20.575 15.91-20.618 4.651-2.58 8.592-3.144 8.621-3.144a.344.344 0 00.29-.391c-.029-.189-.203-.334-.392-.29-.159.029-4.1.58-8.824 3.202-.362.145-9.939 4.057-16.271 20.995-6.129 16.416-9.983 17.952-14.04 18.184-.956.058-2.623-.55-4.709-1.304-6.071-2.217-16.243-5.912-26.907.464-14.17 8.476-13.431 20.676-10.765 26.559 2.521 5.549 5.955 9.041 16.054 10.562 9.65 1.449 10.867 3.652 10.316 10.998-.623 8.403 2.145 19.676 12.012 23.791 2.608 1.087 5.1 1.623 7.404 1.623h.029z" fill="#000"/><path d="M250.451 39.91a.333.333 0 00.247-.116c1.811-1.942 3.071-4.535 4.288-7.056 2.319-4.767 4.709-9.708 11.056-10.94 3.361-.652 5.984-.145 7.781 1.507 3.491 3.217 2.796 9.737 2.796 9.81-.014.188.116.362.304.376.189.014.363-.116.377-.304.029-.276.724-6.94-3.014-10.389-1.97-1.811-4.781-2.376-8.375-1.68-6.694 1.303-9.171 6.389-11.548 11.315-1.246 2.58-2.419 5.014-4.173 6.883a.36.36 0 00.015.492.354.354 0 00.232.087l.014.015zm4.158 36.47a.405.405 0 00.319-.159.395.395 0 00-.087-.55c-.116-.088-2.985-2.145-5.998-1.71a.395.395 0 00-.334.449.387.387 0 00.449.333c2.724-.391 5.391 1.55 5.419 1.565.073.058.16.072.232.072z" fill="#000"/><path d="M254.044 80.538c.725 0 1.478-.072 2.29-.217.188-.029.304-.217.275-.406-.029-.188-.217-.304-.406-.275-5.317.985-8.534-1.768-9.664-4.42-.826-1.94-.594-3.81.579-4.65 3.043-2.174 6.839.319 6.883.348a.336.336 0 00.449-.058.333.333 0 000-.45l-.116-.144c-.072-.102-.203-.13-.304-.13-1.087-.624-4.419-2.203-7.317-.117-1.449 1.029-1.768 3.231-.812 5.492 1.058 2.477 3.767 5.042 8.143 5.042v-.015z" fill="#000"/><path d="M254.188 70.975h.044a.357.357 0 00.304-.391l-1.145-9.578c-.029-.188-.174-.333-.391-.304a.357.357 0 00-.304.391l1.145 9.578c.014.173.173.304.347.304z" fill="#000"/><path d="M234.078 77.017c.145 0 .29-.101.333-.246 2.26-7.39 10.795-10.896 10.881-10.94 14.33-5.94 15.533-14.866 16.402-21.4.218-1.565.406-3.043.768-4.289 1.797-6.129 6.129-7.839 6.173-7.853a.361.361 0 00.203-.45c-.058-.188-.276-.275-.45-.202-.188.072-4.709 1.84-6.592 8.317-.377 1.29-.58 2.796-.797 4.39-.855 6.36-2.029 15.069-15.982 20.85-.362.145-8.925 3.666-11.287 11.374a.342.342 0 00.232.435c.029 0 .072.014.101.014h.015zm15.358 26.965a.351.351 0 00.333-.246c1.072-3.333.594-6.796-1.434-10.259-4.811-8.244 1.608-13.504 1.883-13.72a.344.344 0 00.058-.48.344.344 0 00-.478-.057c-.072.058-7.158 5.84-2.057 14.62 1.912 3.289 2.376 6.563 1.376 9.707a.346.346 0 00.217.435c.029 0 .073.015.102.015v-.015z" fill="#000"/><path d="M235.484 53.081c17.88 0 26.544-11.505 26.631-11.635a.342.342 0 00-.072-.478c-.16-.116-.377-.087-.478.072-.102.13-9.81 13.026-29.993 11.172-.188 0-.362.13-.377.318a.344.344 0 00.319.377c1.376.13 2.695.189 3.984.189l-.014-.015zm33.557 5.056s.145-.015.203-.058a.386.386 0 00.13-.536c-.073-.116-1.898-2.956-5.448-3.71-2.608-.55-5.448.174-8.418 2.188-.029.03-2.362 1.667-4.159.565a.383.383 0 00-.536.13.4.4 0 00.131.551c2.231 1.391 4.911-.507 5.027-.58 2.768-1.868 5.405-2.564 7.796-2.057 3.216.681 4.926 3.333 4.955 3.362a.401.401 0 00.333.188l-.014-.043zm-11.491-7.07a.338.338 0 00.246-.102c3.289-3.42 7.317-1.724 7.346-1.71a.34.34 0 00.449-.173.345.345 0 00-.174-.45c-.043-.014-4.477-1.883-8.099 1.87a.34.34 0 000 .478c.072.058.145.101.232.101v-.014zm-76.806 38.961a.352.352 0 00.333-.247c4.535-14.127 20.488-10.026 20.647-9.983a.336.336 0 00.42-.246c.044-.189-.058-.377-.246-.42-.159-.044-16.75-4.304-21.488 10.432a.346.346 0 00.218.435c.029 0 .072.014.101.014l.015.014zm33.803 49.278a.307.307 0 00.26-.13.361.361 0 00-.043-.493c-13.562-11.374-1.29-29.935-1.174-30.123a.358.358 0 00-.087-.478c-.159-.102-.376-.073-.478.087-.13.188-12.736 19.27 1.304 31.036a.32.32 0 00.218.087v.014zm37.802-5.68c.55 0 1.101-.057 1.637-.173 4.332-.971 6.346-5.492 6.433-5.695a.34.34 0 00-.623-.275c-.014.043-1.97 4.405-5.955 5.289-2.782.623-5.926-.551-9.316-3.507a.347.347 0 00-.493.029.347.347 0 00.029.493c2.941 2.564 5.723 3.839 8.288 3.839zm-42.38-56.596c6.984 0 11.374-4.085 11.577-4.274.145-.13.145-.348 0-.493a.346.346 0 00-.493 0c-.043.044-4.738 4.405-11.925 4.057-.174-.028-.347.13-.362.334 0 .188.13.347.333.362.29 0 .58.014.855.014h.015zm28.122-48.335h.087c.189-.058.304-.247.246-.435l-4.013-14.794a.34.34 0 00-.435-.246c-.188.058-.304.246-.246.435l4.013 14.793c.044.16.189.261.334.261l.014-.014zm35.066 67.998a.356.356 0 00.275-.13.346.346 0 00-.043-.493c-.319-.26-7.781-6.477-14.678-7.303-.203-.029-.362.116-.391.305-.029.188.116.362.304.39 6.694.798 14.243 7.072 14.316 7.144a.33.33 0 00.232.087h-.015zM106.76 418.399a.349.349 0 00.347-.333.362.362 0 00-.333-.362l-6.303-.218c-.145 0-.347.145-.362.334 0 .188.145.347.333.362l6.303.217h.015zM37.661 269.086a.435.435 0 00.217-.072.344.344 0 00.058-.478l-3.94-5.144a.344.344 0 00-.479-.058.344.344 0 00-.058.478l3.941 5.144c.073.087.174.13.276.13h-.015z" fill="#000"/><path d="M326.736 111.718c13.722 0 25.096-5.404 39.02-14.445l3.637-2.55 22.212-16.287s.087-.086.116-.159l5.824-17.025a20.722 20.722 0 012.188-3.028c3.347-3.869 11.244-13.055 12.273-14.808.246-.406.536-.623.855-.609.347 0 .71.29.927.74.362.695.435 1.897-.435 3.187-2.028 3.014-9.939 15.46-10.012 15.59a.317.317 0 00.102.45.317.317 0 00.449-.102c.072-.13 7.983-12.562 10.012-15.576.869-1.29 1.058-2.738.478-3.854-.348-.666-.898-1.072-1.492-1.087h-.044c-.551 0-1.043.334-1.391.928-1.029 1.753-9.592 11.707-12.2 14.706a22.66 22.66 0 00-2.289 3.188l-5.825 16.981-22.111 16.214-3.622 2.535c-18.43 11.983-32.383 17.518-53.321 12.447-8.577-2.072-17.024-4.898-21.516-7.201-13.707-6.984-29.993-7.854-30.152-7.854-.174-.029-.334.13-.348.305 0 .174.13.333.304.333.16 0 16.315.87 29.892 7.795 4.535 2.318 13.04 5.158 21.661 7.245 5.332 1.289 10.215 1.898 14.823 1.898l-.015.043z" fill="#000"/><g clip-path="url(#clip0_1737_46666)"><path d="M519.873 75.902s-2.547-14.517-9.826-16.068c0 0-6.903-2.812-12.338 16.068h22.164z" fill="#C1E6EF"/><path d="M545.184 75.901l-5.609 21.26s-1.935 7.801-9.931 5.679c0 0-5.358-1.824-6.882-10.543L519.874 75.9h25.31z" fill="#F3BEC9"/><path d="M564.084 75.902s-3.834-12.241-9.666-12.75c0 0-4.704-1.315-9.235 12.75h18.901z" fill="#C1E6EF"/><path d="M565.469 75.901h-75.526m75.526-15.476h-1.385m1.385-3.814h-1.385m1.385-3.813h-1.385m1.385-3.807h-1.385m1.385-3.813h-1.385m-66.375 30.723c2.485-8.427 6.138-15.88 11.322-16.096 12.074-.508 11.337 28.887 15.164 37.363 3.828 8.476 13.02 8.08 15.379 0 2.36-8.08 5.609-21.26 5.609-21.26s3.32-12.512 9.235-12.748c5.908-.237 9.666 12.748 9.666 12.748" stroke="#202223" stroke-width=".696" stroke-linecap="round" stroke-linejoin="round"/><path d="M550.814 75.902s-2.484 19.346-8.824 19.346c-6.631 0-7.348-14.503-8.858-22.436-8.135-42.77-13.703-13.013-19.144 3.097" stroke="#202223" stroke-width=".696" stroke-linecap="round" stroke-linejoin="round"/></g><path d="M378.557 243v14.079m0 11.222v14.079m-19.276-20.103h13.817m12.085 0H399" stroke="#000" stroke-width="1.3" stroke-miterlimit="10"/><defs><clipPath id="clip0_1737_46666"><path fill="#fff" transform="matrix(-1 0 0 1 565.816 44.83)" d="M0 0h76.222v58.887H0z"/></clipPath></defs></svg>