<svg width="126" height="126" fill="none" xmlns="http://www.w3.org/2000/svg"><path d="M14.28 27.652L55.904 4.027a14.374 14.374 0 0114.19 0l41.626 23.625A14.374 14.374 0 01119 40.153v45.705c0 5.193-2.8 9.981-7.325 12.528l-41.626 23.423a14.374 14.374 0 01-14.098 0L14.325 98.386A14.374 14.374 0 017 85.858V40.153c0-5.173 2.78-9.947 7.28-12.5z" fill="#FBECE8"/><path d="M35.154 42.852c9.85-14.632 22.434-4.336 27.496 2.642.923-1.146 4.103-4.607 6.155-6.097 8.429-6.406 14.79-4.922 19.057-1.185 5.36 4.693 6.295 12.779 3.213 19.202C85.42 69.196 71.87 83.112 64.085 90l-9.233-6.91c-24.95-16.908-23.528-33.87-19.698-40.238z" stroke="#202223" stroke-width="1.5"/></svg>