<svg width="126" height="126" fill="none" xmlns="http://www.w3.org/2000/svg"><path d="M14.28 27.652L55.904 4.027a14.374 14.374 0 0114.19 0l41.626 23.625A14.374 14.374 0 01119 40.153v45.705c0 5.193-2.8 9.981-7.325 12.528l-41.626 23.423a14.374 14.374 0 01-14.098 0L14.325 98.386A14.374 14.374 0 017 85.858V40.153c0-5.173 2.78-9.947 7.28-12.5z" fill="#DEEACE"/><path d="M49.65 30.019c-5.595.952-7.346 4.485-7.565 7.652-.177 2.547.654 4.918 2.151 6.986 1.022 1.412 2.302 2.971 2.61 4.687.629 3.49-1.311 6.47-2.602 7.701-3.46 4.324-2.162 8.72-1.08 10.378 4.496 6.573 10.954 3.748 13.62 1.514 2.94-3.114 7.28-2.595 9.081-1.946 5.061 2.53 5.832 6.59 5.393 9.476-.23 1.509-.683 2.595-1.574 3.835-1.394 1.938-3.178 4.252-3.283 6.637-.19 4.327 2.647 7.019 4.437 7.943 6.054 3.114 10.306-1.009 11.676-3.46.448-.82.73-1.637.885-2.425.869-4.397-3.684-7.79-4.707-12.153a6.282 6.282 0 01-.07-.34c-.692-3.805 1.73-7.063 3.027-8.216 3.805-5.016 1.009-9.874-.865-11.675-3.272-2.708-6.538-2.62-8.933-1.75-2.165.785-3.594 2.867-5.689 3.823-.651.298-1.23.46-1.594.521-5.016 1.21-8.432-2.666-9.513-4.757-2.249-4.67.216-8.576 1.73-9.945 2.541-2.86 2.814-7.443.72-10.645-2.13-3.26-5.765-3.994-7.855-3.841z" stroke="#202223" stroke-width="1.5"/></svg>