<svg width="126" height="126" fill="none" xmlns="http://www.w3.org/2000/svg"><path d="M14.28 27.652L55.904 4.027a14.374 14.374 0 0114.19 0l41.626 23.625A14.374 14.374 0 01119 40.153v45.705c0 5.193-2.8 9.981-7.325 12.528l-41.626 23.423a14.374 14.374 0 01-14.098 0L14.325 98.386A14.374 14.374 0 017 85.858V40.153c0-5.173 2.78-9.947 7.28-12.5z" fill="#FBECE8"/><path d="M65.61 27.864l8.187 22.124a3.75 3.75 0 002.215 2.215l22.124 8.187c1.959.725 1.959 3.495 0 4.22l-22.124 8.187a3.75 3.75 0 00-2.215 2.215L65.61 97.136c-.725 1.96-3.495 1.96-4.22 0l-8.187-22.124a3.75 3.75 0 00-2.215-2.215L28.864 64.61c-1.96-.725-1.96-3.495 0-4.22l22.124-8.187a3.75 3.75 0 002.215-2.215l8.187-22.124c.725-1.96 3.495-1.96 4.22 0z" stroke="#202223" stroke-width="1.5"/></svg>