<svg width="126" height="126" fill="none" xmlns="http://www.w3.org/2000/svg"><path d="M14.28 27.652L55.904 4.027a14.374 14.374 0 0114.19 0l41.626 23.625A14.374 14.374 0 01119 40.153v45.705c0 5.193-2.8 9.981-7.325 12.528l-41.626 23.423a14.374 14.374 0 01-14.098 0L14.325 98.386A14.374 14.374 0 017 85.858V40.153c0-5.173 2.78-9.947 7.28-12.5z" fill="#F5E7D8"/><path d="M36.435 41.222c2.071 2.371 8.672 7.03 18.513 6.692 9.784-.157 26.473 4.664 14.962 25.205-2.795 3.382-6.676 12.692.156 22.873" stroke="#202223" stroke-width="1.5"/><path d="M55.565 29.272c1.223 2.9 2.514 10.876-2.104 19.572-4.194 8.256-7.092 24.026 12.535 24.56 2.357.064 4.716-.444 7.073-.415 4.953.06 12.16 2.231 16.973 10.524" stroke="#202223" stroke-width="1.5"/></svg>