<svg width="700" height="636" fill="none" xmlns="http://www.w3.org/2000/svg"><g clip-path="url(#clip0_1704_49372)"><path d="M312.716 104.175l9.08 18.592c-5.405.793-16.603 2.594-18.16 3.459-1.557.865-3.099-1.946-3.675-3.459l-3.459-4.756-5.621-7.567 2.378-3.243h6.702l3.026 6.27h6.702l1.514-8.648 1.513-.648z" fill="#fff" stroke="#000" stroke-width=".432"/><path d="M299.096 75.422l.649 22.484 1.081 3.026.865 5.405-1.514 2.811-3.026.864-1.298-1.081c-.432.217-1.383.649-1.729.649-.346 0-.721-.432-.865-.649l-1.513.649-1.73-2.594c-.792-.793-2.421-2.378-2.594-2.378-.173 0-2.522-1.73-3.675-2.595l-2.594-2.594c-.433-1.009-1.298-3.113-1.298-3.459 0-.346.433-1.585.649-2.162l1.946-1.945-1.946-4.54 1.946-3.243 2.378-1.081-.433-2.81 2.162-3.676 3.892-1.297 6.702.216h1.945z" fill="#fff" stroke="#000" stroke-width=".432"/><path d="M314.877 105.905l-1.729-.432-4.324-2.595v-4.323l1.081-4.108-1.081-12.539 7.567 4.54.432 4.108-1.513 6.053 1.081 6.269v3.027h-1.514z" fill="#fff"/><path d="M312.929 105.042c.346.519 5.549 11.386 8.864 17.727l-18.16 3.027-5.188-4.54-7.134-9.945" stroke="#000" stroke-width="1.297"/><path d="M302.282 111.959l5.085 9.512 2.555-9.512h-7.64z" fill="#000"/><path d="M299.151 75.856v7.999m0-8c-6.038-1.543-16.686-2.086-14.358 6.919m14.358-6.918L298.07 54.02h9.945c.577 8.935 1.081 27.585 1.081 28.104m-9.945 1.73c-9.425-2.034-2.735 8 .621 15.349m-.621-15.35c0 .692.414 10.594.621 15.35m-14.979-16.43c.173.667.416 1.386.738 2.161 5.521 13.292 9.882 19.04 10.338 22.916m-11.076-25.077c-2.246 1.008-6.064 3.977-3.369 7.782l1.071 1.514m13.374 15.781c.026.222.04.438.04.649 0 2.495 2.932 2.324 4.524 0m-4.564-.649c-.989 2.08-1.321 2.384-2.479.649m-10.895-16.43c3.188 4.513 6.979 9.957 9.306 13.836.674 1.124 1.183 1.985 1.589 2.594m-10.895-16.43c-1.726.72-4.357 3.156-1.071 7.134 4.107 4.972 7.35 5.621 8.864 8.647 1.513 3.027 2.962 1.298 3.102.649m15.706-26.375c3.315 1.37 9.945 5.016 7.35 11.242-.389.935-.67 1.788-.861 2.564-1.179 4.79 3.496 11.807-1.084 9.975v0c-1.019-.408-2.742-1.25-3.459-1.73m-1.946-22.051l.649 12.107c-1.458 4.191-2.552 7.37 1.297 9.944m-11.27-4.972c.569 1.247 1.043 2.424 1.325 3.459.698 2.56.227 4.536-.664 5.837m0 0l1.849 3.459m8.76-7.783l-1.12 7.783m-7.64 0l5.085 9.512 2.555-9.512m-7.64 0h7.64" stroke="#000" stroke-width="1.297"/><path d="M259.966 636.216L.107 387.167c23.853-33.365 89.416-101.565 160.845-107.445l224.62-121.498 184.192 41.508 90.151 72.639c-1.706 4.389-3.329 10.576-3.971 17.511-.592 6.412-.345 13.462 1.453 20.322 1.322 5.041 3.481 9.979 6.76 14.485 2.729 3.749 6.233 7.199 10.675 10.161L515.933 463.491l-12.539 10.152-26.807 17.903-216.621 144.67z" fill="#fff"/><path d="M356.818 334.85l126.471 123.227m0 0c28.392-59.668 103.468-180.344 176.626-185.706M483.289 458.077c-55.993 2.594-181.555 30.18-235.862 119.769m412.488-305.475l-90.151-72.639-184.192-41.508-224.62 121.498m498.963-7.351c-1.706 4.389-3.33 10.576-3.971 17.511M259.966 636.216L.107 387.167m259.859 249.049l216.621-144.67m-216.621 144.67c-1.868-3.102-3.477-6.706-4.858-10.593m-255-238.456c23.852-33.365 89.415-101.565 160.844-107.445M.107 387.167c10.55-12.625 20.827-15.781 24.646-15.781m136.199-91.664c-62.09 5.88-116.67 63.559-136.2 91.664m222.675 206.46L24.753 371.386m222.674 206.46c.037 3.302.247 7.728.704 12.755m228.456-99.055l26.807-17.903 12.539-10.152m-39.346 28.055a69.502 69.502 0 01-.85-7.742m40.196-20.313L674.832 334.85c-4.442-2.962-7.946-6.412-10.675-10.161M515.933 463.491a90.176 90.176 0 00-6.053-3.409m146.064-170.2c-38.311 15.346-124.359 69.861-162.062 165.162m162.062-165.162c-.592 6.412-.345 13.462 1.453 20.322m-163.515 144.84c2.77.149 5.926.833 9.512 2.161m-9.512-2.161c-9.208-.494-14.153 4.929-16.485 12.329m25.997-10.168c17.347-34.228 72.432-111.546 154.003-147.001M503.394 457.205c2.023.748 4.182 1.701 6.486 2.877m147.517-149.878c1.322 5.041 3.481 9.979 6.76 14.485m0 0c-35.356 21.226-115.709 78.021-154.277 135.393m-34.143 23.722c-43.023 15.781-147.38 66.24-220.629 141.819m220.629-141.819a60.804 60.804 0 010-6.669M255.108 625.623c-1.946-5.476-3.439-11.516-4.568-17.511m0 0c30.391-34.929 117.979-110.024 225.197-130.977M250.54 608.112c-1.148-6.096-1.92-12.145-2.409-17.511m227.606-113.466c.194-3.405.71-6.747 1.66-9.762m0 0c-45.344 3.387-154.679 32.774-229.266 123.228" stroke="#000" stroke-width="1.297"/><path d="M364.169 125.796l1.729 70.693 3.243 26.159h-7.35l-19.241-36.536-12.755-21.835-13.404-21.402-9.728-13.404-3.243-3.675 55.344-8.432v8.777l5.405-.345z" fill="#BEB0D4"/><path d="M306.663 129.471l9.728 13.404 13.404 21.402 12.755 21.835 19.241 36.536h7.35l-3.243-26.159-1.729-70.693-5.405.345m-52.101 3.33l-3.243-3.675 55.344-8.432v8.777m-52.101 3.33l52.101-3.33" stroke="#000" stroke-width="1.297"/><path d="M234.237 524.23L90.904 385.869c46.005-55.517 142.108-85.394 185.49-90.583l140.09 133.821c-44.621-6.226-150.251 51.02-182.247 95.123z" fill="#FFF5DA" stroke="#000" stroke-width="1.297"/><path d="M427.079 31.968l4.324-8.863 10.593 3.026h6.486l6.918-1.297 3.675-1.73 2.378-.648v6.702l4.756 10.81 5.405 6.269.648 1.297-7.35 15.566-1.085 2.944c-.127.344.272.643.567.424l3.031-2.252a4.971 4.971 0 017.76 2.682l.503 1.844a7.498 7.498 0 01-3.989 8.731l-.911.439a9.537 9.537 0 01-2.34.77l-1.179.224a18.726 18.726 0 01-4.318.313l-2.795-.122-1.514 3.46-7.782 27.672-23.781 18.592-1.513.648-1.297-23.348 1.297-1.946 4.052-13.981a2.094 2.094 0 00-1.123-2.481l-3.837-1.799a13.573 13.573 0 01-4.416-3.308l-.238-.27a11.218 11.218 0 01-1.84-2.868 28.683 28.683 0 01-2.341-8.904l-.323-3.357 1.418-7.566 3.243-12.107 6.918-15.566z" fill="#fff" stroke="#000" stroke-width="1.297"/><path d="M129.083 422.439s-2.324 3.094 1.255 4.703l45.614 5.559 19.609-7.821.085 10.222 17.717 2.159s4.288-15.133 4.106-17.718c0 0-51.925-5.613-88.364 2.879l-.022.017z" fill="#A599C6"/><path d="M209.726 392.41c10.807 5.549 7.622 27.929 7.622 27.929l-16.667-.998a13.174 13.174 0 00-6.241 1.166l-12.895 5.879a16.815 16.815 0 01-9.693 1.282l-43.48-5.3s-1.258-8.259 12.372-14.624l40.048-18.701 28.929 3.406.005-.039z" fill="#BCB0D6"/><path d="M180.796 389.009s-24.436 11.405-40.047 18.701c-10.325 4.841-12.411 11.68-12.65 15.763-.114 1.913 1.332 3.58 3.25 3.813l44.576 5.434 19.609-7.822.086 10.222 17.716 2.16s11.307-30.827-1.591-44.479" stroke="#000" stroke-width="1.297" stroke-miterlimit="10"/><path d="M147.223 404.682l4.238 7.609" stroke="#000" stroke-width="1.297" stroke-linecap="round" stroke-linejoin="round"/><path d="M217.351 420.32l-12.627-1.539c-3.876-.473-7.8.102-11.387 1.651l-12.126 5.277a21.987 21.987 0 01-11.387 1.652l-41.444-5.051" stroke="#000" stroke-width="1.297" stroke-miterlimit="10"/><path d="M164.223 396.742l3.76 7.293" stroke="#000" stroke-width="1.297" stroke-linecap="round" stroke-linejoin="round"/><path d="M95.883 236.19s-3.466 1.721-.99 4.765l38.259 25.449 21.033 1.816-4.514 9.172 14.861 9.885s10.627-11.596 11.625-13.987c0 0-43.875-28.332-80.247-37.106l-.027.006z" fill="#A599C6"/><path d="M181.422 245.569c7.165 9.811-5.73 28.378-5.73 28.378l-14.443-8.376a13.174 13.174 0 00-6.101-1.76l-14.162-.538a16.813 16.813 0 01-9.236-3.207l-36.47-24.259s2.584-7.944 17.621-7.512l44.181 1.273 24.319 16.034.021-.033z" fill="#BCB0D6"/><path d="M157.105 229.539s-26.956-.782-44.18-1.273c-11.4-.311-16.334 4.863-18.381 8.404-.96 1.659-.417 3.797 1.192 4.867l37.39 24.871 21.033 1.816-4.514 9.172 14.86 9.885s23.946-22.468 18.55-40.458" stroke="#000" stroke-width="1.297" stroke-miterlimit="10"/><path d="M120.064 228.467l.37 8.702" stroke="#000" stroke-width="1.297" stroke-linecap="round" stroke-linejoin="round"/><path d="M175.706 273.93l-10.592-7.045a21.995 21.995 0 00-10.916-3.637l-13.205-.73a21.981 21.981 0 01-10.915-3.637l-34.763-23.123" stroke="#000" stroke-width="1.297" stroke-miterlimit="10"/><path d="M138.818 229.006l.085 8.204" stroke="#000" stroke-width="1.297" stroke-linecap="round" stroke-linejoin="round"/><path d="M113.746 83.422v17.313m0 13.8v17.314m-23.706-24.72h16.991m14.863 0h16.991m535.658 74.01v17.313m0 13.8v17.313m-23.705-24.721h16.99m14.863 0h16.991" stroke="#000" stroke-width="1.297" stroke-miterlimit="10"/><path d="M462.669 72.737c1.211-1.717 4.495-4.366 7.939-1.232m-20.012-32.434s5.668-3.56 10.385 2.542m-31.952-10.402s4.487-2.835 8.21 2.007m8.105 14.382s7.16-9.347 18.296-.23c0 0 3.229 2.823 6.161 1.346m-34.132-4.93s1.533-8.774-8.597-10.731c0 0-5.629-.416-5.283-3.297" stroke="#000" stroke-width="1.297" stroke-linecap="round" stroke-linejoin="round"/><path d="M451.172 51.009c-2.043-.807-3.019-3.186-2.179-5.313.84-2.127 3.178-3.198 5.221-2.391 2.044.807 3.019 3.185 2.179 5.313-.84 2.127-3.177 3.197-5.221 2.39zm-21.849-8.46c-1.722-.68-2.494-2.813-1.724-4.763.77-1.95 2.791-2.98 4.513-2.3 1.722.68 2.494 2.812 1.724 4.763-.77 1.95-2.79 2.98-4.513 2.3z" fill="#000"/><path d="M435.492 59.274s-5.019-2.444-2.88-5.304c2.139-2.86 7.23-5.555 6.427-11.804m28.305 4.103s-2.146 2.087-5.3-.06" stroke="#000" stroke-width="1.297" stroke-linecap="round" stroke-linejoin="round"/><path d="M441.183 70.602s-3.095-5.392-9.899-6.04c0 0-5.82 2.473-2.022 6.77 5.526 6.256 11.373.312 11.921-.73z" fill="#F3BEC9"/><path d="M441.183 70.601s-9.618-9.83-12.396-3.701m9.738 6.643s-7.477 2.531-9.9-3.391m15.855-.252s-8.507 4.458-18.138-4.664" stroke="#000" stroke-width="1.297" stroke-linecap="round" stroke-linejoin="round"/><path d="M613.64 56.398a25.167 25.167 0 0012.765-12.765 25.165 25.165 0 0012.764 12.765 25.165 25.165 0 00-12.764 12.764 25.167 25.167 0 00-12.765-12.764z" stroke="#000" stroke-width="1.297"/><path d="M423.405 39.32l8.258-16.515c9.361 6.605 23.844 2.558 30.008-.347-2.421 10.03 6.053 20.321 10.593 24.213L464 66c3.315-3.315 9.864-6.53 11.939 2.29 2.249 10.895-9.584 11.89-15.781 11.025-3.632 5.189-7.567 22.34-9.08 30.267 1.945 2.45 4.669 8.128 0 11.241v3.459l118.255 35.888c0 10.204-15.422 17.511-23.132 19.889l-49.94 4.54-29.185 3.675-9.08 12.107c34.59 43.237 9.728-20.322 64.208 13.836 43.583 27.326 60.821-3.892 63.991-22.916 12.251 8.647 37.444 13.922 40.211-34.158 3.459-60.1-57.506-29.834-57.073-59.668.081-5.587-.286-10.325-.984-14.335-3.494-20.056-28.88-14.797-48.811-18.943-17.586-3.658-23.867-18.252-28.682-35.254-5.534-19.543-19.745-23.42-26.159-22.916-12.034-4.251-37.746-6.918-44.318 16.43-8.215 29.186-17.295 30.916-23.132 36.32-5.837 5.405-26.808 47.346 26.807 47.346 1.903-1.384 4.684-12.474 5.837-17.847-3.299-.795-6.591-2.42-9.512-5.286-9.167-8.993-1.802-32.86 3.026-43.67z" fill="#000"/><path d="M423.405 39.32l-.58-.29-.006.013-.006.013.592.264zm-3.026 43.67l-.454.463.454-.463zm9.512 5.286l.152-.63-.152.63zm-5.837 39.033l-.567.314.009.018.011.016.547-.348zm1.513 2.378l-.547.348.252.396.454-.115-.159-.629zm34.591-50.372l.089-.642-.393-.055-.228.325.532.372zm15.781-11.025l.635-.132-.001-.008-.002-.009-.632.149zM464 66l-.596-.255a.649.649 0 001.055.714L464 66zm8.264-19.33l.596.256.188-.438-.362-.31-.422.493zm-10.593-24.212l.63.152.318-1.316-1.225.577.277.587zm3.026-16.43l-.216.61.13.047.137-.011-.051-.647zm-44.318 16.43l-.625-.176.625.176zm148.954 75.017l-.649-.01.649.01zm57.073 59.668l.648.037-.648-.037zm-40.211 34.158l.374-.53-.844-.596-.169 1.019.639.107zm-63.991 22.916l-.345.549.345-.549zm-64.208-13.836l-.519-.389-.302.402.314.392.507-.405zm9.08-12.107l-.082-.643-.272.034-.165.22.519.389zm29.185-3.675l-.059-.646-.011.001-.011.002.081.643zm49.94-4.54l.058.646.068-.006.065-.02-.191-.62zm23.132-19.889h.648v-.481l-.46-.14-.188.621zm-118.255-35.888h-.649v.481l.46.14.189-.621zm-28.265-85.226c-2.431 5.442-5.5 14.168-6.81 22.682-.655 4.257-.875 8.49-.339 12.246.535 3.755 1.832 7.087 4.261 9.47l.908-.926c-2.155-2.115-3.374-5.14-3.885-8.727-.511-3.585-.307-7.681.337-11.866 1.288-8.37 4.315-16.983 6.713-22.35l-1.185-.53zm-2.888 44.397c3.012 2.956 6.411 4.634 9.814 5.454l.304-1.261c-3.195-.77-6.38-2.341-9.21-5.118l-.908.925zm9.814 5.454c7.249 1.746 14.501-.4 18.179-2.315l-.599-1.15c-3.49 1.817-10.418 3.856-17.276 2.204l-.304 1.26zm-.482-.767c-.574 2.676-1.554 6.774-2.625 10.37-.536 1.8-1.091 3.459-1.625 4.748a13.547 13.547 0 01-.763 1.594c-.25.428-.446.655-.571.746l.763 1.049c.35-.255.657-.677.928-1.141.281-.481.563-1.078.842-1.752.558-1.348 1.128-3.056 1.669-4.874 1.084-3.638 2.071-7.77 2.65-10.468l-1.268-.272zm-5.584 17.458c-1.266.92-3.346 2.829-4.065 6.368-.717 3.527-.057 8.552 3.879 15.657l1.134-.628c-3.847-6.947-4.376-11.651-3.742-14.771.632-3.109 2.444-4.768 3.557-5.577l-.763-1.049zm-.166 22.059l1.513 2.378 1.095-.696-1.514-2.378-1.094.696zm2.708 1.989l-1.514-23.565-1.294.083 1.513 23.565 1.295-.083zm-.189.5c.079-.079.398-.349.961-.808.548-.446 1.293-1.044 2.19-1.758 1.794-1.429 4.191-3.319 6.817-5.382 5.25-4.125 11.411-8.934 15.482-12.105l-.797-1.023a5145.037 5145.037 0 00-15.487 12.108 1464.768 1464.768 0 00-6.823 5.387c-.899.716-1.648 1.317-2.201 1.767-.536.437-.922.759-1.059.897l.917.917zm24.544-20.161c.929 1.17 2.031 3.101 2.348 5.072.157.977.118 1.938-.205 2.817-.321.871-.934 1.703-1.995 2.41l.719 1.079c1.274-.849 2.071-1.895 2.493-3.041.418-1.138.452-2.333.269-3.471-.364-2.259-1.597-4.393-2.613-5.673l-1.016.807zm.148 10.299c-2.249 1.499-6.901 3.276-11.888 4.9a222.64 222.64 0 01-13.422 3.874l.318 1.258c3.29-.832 8.515-2.273 13.505-3.898 4.961-1.615 9.785-3.441 12.206-5.055l-.719-1.079zm.997-10.581c.754-3.95 2.112-10.203 3.734-16.11.81-2.954 1.684-5.813 2.579-8.251.9-2.451 1.803-4.43 2.661-5.655l-1.063-.744c-.958 1.37-1.908 3.48-2.815 5.952-.912 2.485-1.797 5.382-2.613 8.355-1.633 5.947-2.998 12.234-3.757 16.21l1.274.243zm8.353-29.745c3.154.44 7.799.42 11.406-1.15 1.817-.791 3.409-1.993 4.387-3.764.981-1.776 1.299-4.046.713-6.885l-1.27.262c.538 2.608.221 4.549-.578 5.996-.802 1.453-2.134 2.49-3.769 3.201-3.296 1.435-7.667 1.48-10.71 1.055l-.179 1.285zm16.503-11.817c-.537-2.28-1.381-3.867-2.466-4.872-1.1-1.02-2.394-1.388-3.703-1.323-2.55.128-5.161 1.896-6.861 3.595l.918.918c1.615-1.616 3.936-3.113 6.008-3.217 1.002-.05 1.942.224 2.757.978.83.77 1.583 2.087 2.084 4.218l1.263-.297zm-11.975-1.886l8.264-19.33-1.192-.51-8.264 19.33 1.192.51zm8.09-20.077c-2.22-1.903-5.421-5.39-7.761-9.625-2.344-4.24-3.781-9.149-2.624-13.943l-1.261-.305c-1.264 5.237.326 10.49 2.749 14.875 2.427 4.39 5.733 7.995 8.053 9.983l.844-.985zm-7.772-40.762c-6.089-2.151-15.648-3.91-24.549-2.16-8.947 1.759-17.246 7.074-20.611 19.026l1.249.351c3.208-11.396 11.051-16.422 19.612-18.104 8.606-1.692 17.921.01 23.866 2.11l.433-1.223zm-45.16 16.866c-4.092 14.54-8.382 22.173-12.328 26.834-1.973 2.33-3.873 3.934-5.652 5.295-1.759 1.347-3.479 2.512-4.968 3.89l.881.952c1.43-1.324 3.034-2.402 4.876-3.812 1.821-1.394 3.799-3.06 5.853-5.487 4.107-4.85 8.465-12.675 12.587-27.32l-1.249-.352zm-22.948 36.02c-1.559 1.443-4.008 5.177-5.972 9.904-1.971 4.746-3.499 10.599-3.125 16.313.375 5.737 2.67 11.34 8.334 15.489 5.637 4.13 14.537 6.763 28.011 6.763v-1.297c-13.333 0-21.918-2.61-27.245-6.512-5.302-3.884-7.451-9.104-7.806-14.528-.356-5.446 1.102-11.092 3.029-15.73 1.935-4.657 4.296-8.192 5.655-9.45l-.881-.953zm67.942-51.628c6.131-.482 20.041 3.224 25.484 22.446l1.248-.353C485.855 8.902 471.343 4.854 464.647 5.38l.101 1.293zm25.484 22.446c4.814 16.998 11.181 31.97 29.174 35.712l.264-1.27c-17.18-3.573-23.374-17.789-28.19-34.795l-1.248.353zm77.478 54.131c.69 3.964 1.055 8.66.974 14.215l1.297.018c.082-5.62-.287-10.398-.993-14.456l-1.278.223zm.974 14.215c-.056 3.845.88 6.784 2.601 9.064 1.714 2.271 4.162 3.829 7.023 5.003 2.859 1.172 6.177 1.979 9.671 2.72 3.513.744 7.194 1.42 10.869 2.336 7.339 1.828 14.459 4.57 19.547 10.494 5.077 5.911 8.223 15.101 7.364 30.023l1.295.074c.871-15.128-2.307-24.693-7.675-30.942-5.356-6.236-12.802-9.061-20.218-10.908-3.703-.923-7.446-1.611-10.913-2.346-3.487-.739-6.705-1.527-9.447-2.651-2.739-1.124-4.957-2.565-6.481-4.584-1.516-2.01-2.391-4.651-2.339-8.265l-1.297-.018zm57.075 59.64c-1.38 23.978-8.338 34.34-16.164 37.796-7.863 3.472-16.97.143-23.026-4.131l-.748 1.06c6.196 4.373 15.811 8.005 24.298 4.257 8.526-3.765 15.548-14.805 16.935-38.908l-1.295-.074zm-40.203 34.088c-1.571 9.424-6.618 21.78-16.561 28.407-9.868 6.576-24.784 7.648-46.447-5.934l-.689 1.099c21.921 13.744 37.415 12.872 47.855 5.914 10.364-6.907 15.521-19.672 17.121-29.273l-1.279-.213zm-63.008 22.473c-13.651-8.559-22.463-11.086-28.549-10.588-6.153.502-9.383 4.084-11.866 7.222-1.262 1.594-2.279 3-3.406 3.958-1.082.921-2.194 1.365-3.644 1.084-1.516-.293-3.486-1.393-6.198-3.837-2.698-2.432-6.068-6.136-10.383-11.53l-1.013.81c4.333 5.415 7.753 9.183 10.528 11.684 2.763 2.49 4.95 3.785 6.819 4.147 1.935.374 3.434-.266 4.732-1.37 1.253-1.066 2.384-2.627 3.582-4.141 2.434-3.076 5.366-6.278 10.955-6.735 5.655-.462 14.166 1.876 27.754 10.395l.689-1.099zm-64.034-12.897l9.08-12.107-1.037-.778-9.08 12.107 1.037.778zm8.643-11.852l29.185-3.676-.162-1.286-29.186 3.675.163 1.287zm29.163-3.673l49.939-4.54-.117-1.292-49.94 4.54.118 1.292zm50.072-4.566c3.902-1.204 9.751-3.651 14.64-7.1 4.855-3.425 8.949-7.972 8.949-13.409h-1.297c0 4.767-3.617 8.975-8.4 12.349-4.749 3.351-10.466 5.746-14.275 6.92l.383 1.24zm23.129-21.13l-118.255-35.887-.377 1.241 118.255 35.887.377-1.241zm-117.795-35.267v-3.459h-1.297v3.459h1.297zM423.985 39.61l8.258-16.515-1.16-.58-8.258 16.515 1.16.58zm7.304-16.275c4.861 3.43 11.003 4.065 16.641 3.508 5.644-.558 10.878-2.32 14.017-3.799l-.553-1.173c-3.024 1.425-8.114 3.14-13.592 3.681-5.485.542-11.264-.101-15.765-3.277l-.748 1.06zm.748-1.06c-.154-.108-.306-.22-.457-.334l-.784 1.033c.163.124.327.244.493.361l.748-1.06zm-.78-.107l-.174.347 1.16.58.174-.347-1.16-.58zm88.149 42.664c5.029 1.046 10.392 1.497 15.626 1.9 5.251.405 10.362.76 14.958 1.608 4.596.848 8.605 2.176 11.671 4.48 3.044 2.288 5.202 5.57 6.049 10.431l1.278-.223c-.9-5.167-3.225-8.748-6.547-11.245-3.3-2.48-7.538-3.856-12.216-4.719-4.679-.862-9.87-1.223-15.094-1.625-5.241-.403-10.525-.85-15.461-1.877l-.264 1.27z" fill="#000"/><path d="M458.643 82.99l12.322 10.376 6.918.433 6.702-17.728-5.188-3.459-2.811-1.73-.532 1.996a7.105 7.105 0 01-4.821 4.972l-2.212.664a13.845 13.845 0 01-3.98.584h-4.885l-1.513 3.891z" fill="#fff" stroke="#000" stroke-width="1.297"/><path d="M520.257 146.116L496.26 133.51m0 0c-10.777-3.349-26.999-6.115-35.455-7.283l-8.864-5.621-5.621 2.378-3.459 26.375 23.781 38.914 76.963-7.999 15.782-6.486c7.091-3.113 9.584-10.377 9.945-13.62 7.782-19.889-13.044-36.536-24.43-42.373l-59.884-44.318c-1.729 7.263-14.701 21.042-20.97 27.023l32.212 33.01z" stroke="#000" stroke-width="1.297"/><path d="M424.272 106.339l1.297 21.835 1.297 1.081 24.213-19.241 1.946 3.027.648 4.323-1.729 3.243-20.754 7.567-4.324 1.081-1.297-1.081-3.243-4.324-2.162-7.566.649-5.405 3.459-4.54z" fill="#fff"/><path d="M369.139 222.864c-2.017.072-6.226.173-6.918 0l-23.348-42.806-18.808-31.995-13.404-18.809-7.783-8.215-5.405-7.134-7.35-8.215-7.134-6.054-7.351-4.756-11.241-5.188-15.35-1.297-14.484 4.756-17.728 14.7-11.89 14.269-12.107 17.727-14.701 26.808-26.158 47.994 18.376 30.266-4.324 39.995-6.702 58.587-3.675 38.698 26.159 8.215 15.997 2.162 18.377 1.297h7.998l19.89-3.459 3.459-24.646 6.053-50.588 2.811-41.508 1.081-16.214v-17.295l4.539 15.998 7.567 19.024 10.161 17.944 9.945 11.026 8.431 6.053 6.053 2.378 2.595 1.513 13.619 10.594 16.863 7.35 13.836 3.027h21.403l10.809-2.595 8.432-4.107 8.647-6.053 8.431-7.999 9.297-13.404 7.782-17.728 10.377-31.779-19.024-15.35-18.809-9.08-7.134-2.162-11.242-1.945h-6.918z" fill="#F1D9D2"/><path d="M461.237 125.795l-8.863-5.621-5.621 2.378-16.431 6.053-5.188.865-3.183-6.843a16.365 16.365 0 01.663-15.078l.574-.995-27.888-7.783c-5.405-.648-18.809 0-29.186 7.783l-41.94 15.998 34.59-5.188v8.431h5.405l1.945 71.342c.865 7.783 2.595 23.781 2.595 25.51 28.018-.864 54.335 19.097 63.991 29.186l17.079-42.157 17.295-21.835 76.964-7.999 15.781-6.486c7.091-3.113 9.585-10.377 9.945-13.619 7.783-19.89-13.043-36.536-24.429-42.373l-59.885-44.32c-1.729 7.265-14.7 21.043-20.97 27.024l32.212 33.01c-10.777-3.349-26.998-6.115-35.455-7.283z" fill="#fff"/><path d="M520.689 145.684l-23.997-12.606m0 0c-10.777-3.349-26.998-6.115-35.455-7.283l-8.863-5.621-5.621 2.378-16.431 6.053-5.188.865-3.183-6.843a16.365 16.365 0 01-1.432-5.142v0a16.364 16.364 0 012.095-9.936l.574-.995-27.888-7.783c-5.405-.648-18.809 0-29.186 7.783l-41.94 15.998 34.59-5.188v8.431h5.405l1.945 71.342m130.578-64.059l-32.212-33.01c6.27-5.98 19.241-19.76 20.97-27.023l59.885 44.319c11.386 5.837 32.212 22.483 24.429 42.373-.36 3.242-2.854 10.506-9.945 13.619l-15.781 6.486-76.964 7.999-17.295 21.835-17.079 42.157c-9.656-10.089-35.973-30.05-63.991-29.186 0-1.729-1.73-17.727-2.595-25.51m0 0l6.486-17.295 1.73-20.105c-3.459-4.252-7.913-14.874 1.945-23.349l2.162-4.756m-9.512 91.233h-7.134m63.992-93.611c-9.44 5.188-29.618 31.693-34.806 96.204m26.373-50.371c4.323 5.044 16.214 12.669 29.185 2.81m-76.529-29.186c-.144 3.027 1.6 10.334 9.729 15.349" stroke="#000" stroke-width="1.297"/><path d="M421.457 284.262l-.614-.208-.003.008-.003.009.62.191zm-61.83 50.804l.028-.648-.04-.002-.039.003.051.647zm-70.261-39.779l-.617.201.014.042.019.04.584-.283zm-40.211-129.281l.624-.176a.649.649 0 00-1.256.322l.632-.146zm-32.429-2.161l.143.632.078-.017.072-.036-.293-.579zm-49.723 75.233l-.623-.181-.016.055-.006.056.645.07zm-15.565 142.901l-.645-.07a.649.649 0 00.398.67l.247-.6zm88.637 8.431l.167.627a.65.65 0 00.474-.529l-.641-.098zm9.08-179.004l.603-.238-1.245.33.642-.092zm52.505 101.609l.467-.45-.467.45zm-2.998-191.76l-.549.346.053.084.075.063.421-.493zm-67.667-28.32l-.302-.574-.027.014-.025.016.354.544zm-47.129 55.776l.57.309.005-.009.005-.01-.58-.29zm-35.887 66.37l-.571-.308a.65.65 0 00.016.644l.555-.336zm283.889 36.329l-11.025 32.644 1.228.415 11.026-32.644-1.229-.415zm-11.031 32.661c-2.678 8.713-8.967 21.709-19.106 32.322-10.129 10.603-24.066 18.793-42.076 18.025l-.056 1.296c18.482.788 32.759-7.632 43.07-18.425 10.301-10.783 16.681-23.966 19.408-32.837l-1.24-.381zm-130.854 11.016c-9.122-28.08-25.701-79.754-34.592-109.378l-1.243.373c8.896 29.64 25.479 81.326 34.601 109.406l1.234-.401zm-34.592-109.378c-2.771-9.231-4.788-16.3-5.604-19.848l-1.264.291c.827 3.597 2.857 10.707 5.625 19.93l1.243-.373zm-6.86-19.526l5.614 19.889 1.249-.352-5.615-19.89-1.248.353zm6.828 19.443c-2.584-5.644-7.609-13.544-14.315-18.889-6.726-5.362-15.231-8.206-24.61-3.471l.585 1.158c8.78-4.433 16.74-1.835 23.217 3.327 6.497 5.18 11.414 12.889 13.944 18.415l1.179-.54zm-38.775-22.414c-5.177 1.163-13.747 6.393-22.991 18.126-9.261 11.754-19.239 30.084-27.213 57.559l1.246.362c7.937-27.35 17.849-45.52 26.986-57.118 9.153-11.619 17.49-16.593 22.257-17.664l-.285-1.265zm-65.393 219.367c7.939 3.262 21.891 7.589 38 9.997 16.105 2.407 34.417 2.902 51.051-1.539l-.334-1.253c-16.4 4.378-34.516 3.901-50.525 1.509-16.006-2.392-29.857-6.691-37.699-9.914l-.493 1.2zm89.525 7.929c5.779-37.763 14.469-109.046 13.046-151.452l-1.296.044c1.418 42.273-7.253 113.449-13.032 151.212l1.282.196zm13.046-151.452c-.404-12.041-1.624-21.841-4.004-27.888l-1.207.476c2.291 5.821 3.511 15.424 3.915 27.456l1.296-.044zm-5.249-27.558l3.959 27.672 1.284-.184-3.959-27.672-1.284.184zm111.063 122.921c-12.949 1.027-38.966-2.663-57.449-21.854l-.934.9c18.833 19.555 45.283 23.294 58.485 22.247l-.102-1.293zm-57.449-21.854c-4.639-4.816-8.806-10.612-12.178-17.561l-1.167.566c3.432 7.074 7.679 12.982 12.411 17.895l.934-.9zm-49.646-73.344c2.512 11.141 7.958 28.215 16.151 43.254 8.17 14.998 19.176 28.168 32.889 31.173l.278-1.267c-13.118-2.875-23.884-15.576-32.028-30.527-8.122-14.91-13.533-31.864-16.024-42.918l-1.266.285zm117.89-.426c-7.895-16.26-20.928-41.666-34.368-65.043-6.72-11.688-13.545-22.876-19.885-32.164-6.33-9.274-12.208-16.701-17.035-20.826l-.842.986c4.685 4.005 10.482 11.307 16.805 20.571 6.314 9.25 13.122 20.407 19.833 32.08 13.421 23.345 26.44 48.722 34.326 64.962l1.166-.566zm-71.16-117.886c-5.084-8.061-14.589-19.16-26.616-26.273-12.045-7.125-26.685-10.28-41.902-2.275l.604 1.148c14.703-7.734 28.852-4.728 40.638 2.243 11.805 6.982 21.173 17.912 26.178 25.849l1.098-.692zm-68.57-28.518c-9.595 6.252-32.423 26.166-47.355 56.03l1.16.58c14.815-29.631 37.474-49.38 46.903-55.523l-.708-1.087zm-47.346 56.012l-35.887 66.37 1.141.617 35.887-66.37-1.141-.617zm-16.937 90.605l-.683 6.269 1.29.141.683-6.27-1.29-.14zm-.683 6.269l-14.882 136.632 1.289.14 14.883-136.631-1.29-.141zm-18.251-29.86l18.342 30.267 1.109-.673-18.342-30.266-1.109.672z" fill="#000"/><path d="M360.71 125.794l-54.263 3.676-3.027-3.676 27.456-4.323" stroke="#000" stroke-width="1.297"/><path d="M286.289 163.808a.65.65 0 00-1.195.505l1.195-.505zm119.21 148.583c-9.034 2.571-23.433 4.198-37.222.729-13.76-3.46-26.896-11.985-33.552-29.735l-1.215.456c6.834 18.223 20.362 26.994 34.45 30.537 14.06 3.537 28.696 1.878 37.894-.74l-.355-1.247zm-70.774-29.006c-13.495-35.988-37.915-94.715-48.436-119.577l-1.195.505c10.521 24.862 34.931 83.568 48.416 119.528l1.215-.456zM301.041 49.048a1.946 1.946 0 013.891 0v4.973h-3.891v-4.973z" fill="#000"/><path d="M468.028 382.58c1.464-2.28 52.172-105.069 130.328-118.98m-151.605 95.352c1.463-2.28 52.171-105.069 130.327-118.98M423.405 335.17c1.463-2.279 52.172-105.069 130.328-118.979m-133.356 69.368c1.464-2.28 37.472-83.561 115.628-97.472" stroke="#000" stroke-width="1.297"/><circle cx="241.373" cy="453.536" r="15.349" stroke="#000" stroke-width="1.297"/><circle cx="275.533" cy="348.469" r="15.349" stroke="#000" stroke-width="1.297"/><path d="M304.501 389.545l8.864-15.133-25.726-16.863m-44.535 80.855l7.566-38.05 28.753 3.46m24.998 14.676h-16.716l-8.355-14.473 8.357-14.477 16.716.001 8.355 14.473-8.357 14.476zm-72.344 47.369l-6.485 8.431-45.832-30.266 5.621-15.133" stroke="#000" stroke-width="1.297"/><path d="M466.999 19c-.833 7.167 1 22.6 15 27 14 4.4 25.834 2.5 30.001 1" stroke="#fff"/></g><defs><clipPath id="clip0_1704_49372"><path fill="#fff" transform="translate(0 -3)" d="M0 0h700v639H0z"/></clipPath></defs></svg>